<mxfile host="app.diagrams.net" modified="2023-12-04T01:07:16.879Z" agent="Mozilla/5.0 (Windows NT 10.0; Win64; x64) AppleWebKit/537.36 (KHTML, like Gecko) Chrome/119.0.0.0 Safari/537.36" etag="fXjCzqoECvGtHltR76d2" version="22.1.5" type="github">
  <diagram name="페이지-1" id="SB8H0nJD_WDk5iceCgkp">
    <mxGraphModel dx="1434" dy="758" grid="1" gridSize="10" guides="1" tooltips="1" connect="1" arrows="1" fold="1" page="1" pageScale="1" pageWidth="827" pageHeight="1169" math="0" shadow="0">
      <root>
        <mxCell id="0" />
        <mxCell id="1" parent="0" />
        <mxCell id="6VcvKHU9KsKmzjZGUHk8-2" value="" style="shape=image;verticalLabelPosition=bottom;labelBackgroundColor=default;verticalAlign=top;aspect=fixed;imageAspect=0;image=data:image/png,iVBORw0KGgoAAAANSUhEUgAAAukAAAMOCAYAAACj8piFAAAgAElEQVR4Aey9bdAlyVXnN58cDjsc3i/2h43wm77ZYUc4okPIASvWC2uBMSgstAoWE0DsfGBhOlZoWRThQGgx3giZaQ9iBkkDDC+GXWC3WwxixNsir5BYkKaxNEIMEh6NLLVmRhKanp7ume6nZ4Q0UjlO1T23sk5lZmXdqrw3783fE/FE1a3KPHnOP//n5L+y67l9R/OFjzb8ggEcgANwAA7AATgAB+AAHCiHA3cwGeVMBnPBXMABOAAH4AAcgANwAA4IB7Yi/Qe/73uaJ556qrn5wov8ggEcgANwAA7AATgAB+AAHDgQB0STb0W6fPh/P/4XDT8gAAIgAAIgAAIgAAIgAAKHQ0A0+Vakyw46PyAAAiAAAiAAAiAAAiAAAodHAJF++DnAAxAAARAAARAAARAAARAYIIBIH8DBBxAAARAAARAAARAAARA4PAKI9MPPAR6AAAiAAAiAAAiAAAiAwAABRPoADj6AAAiAAAiAAAiAAAiAwOERQKQffg7wAARAAARAAARAAARAAAQGCCDSB3DwAQRAAARAAARAAARAAAQOjwAi/fBzgAcgAAIgAAIgAAIgAAIgMEAAkT6Agw8gAAIgAAIgAAIgAAIgcHgEEOmHnwM8AAEQAAEQAAEQAAEQAIEBAoj0ARx8AAEQAAEQAAEQAAEQAIHDI4BIP/wc4AEIgAAIgAAIgAAIgAAIDBBApA/g4AMIgAAIgAAIgAAIgAAIHB4BRPrh5wAPQAAEQAAEQAAEQAAEQGCAACJ9AAcfQAAEQAAEQAAEQAAEQODwCCDSDz8HeAACIAACIAACIAACIAACAwQQ6QM4+AACIAACIAACIAACIAACh0cAkX74OcADEAABEAABEAABEAABEBgggEgfwMEHEAABEAABEAABEAABEDg8Aoj0w88BHoAACIAACIAACIAACOwJgevXrzdvfvObm0996lOzR3zooYean/3Zn53db5cOiPRdUKMPCIAACIAACIAACIBAkQh8+MMfbu68887R71ve8pbmhRdeaEIifaqfBItIL3LKcQoEQAAEQAAEQAAEQKB0BERsx3a7QyLdF5e1hUj3ocQ1EAABEAABEAABEAABEJhAwApr21xE+g//8A+3O+1ylM+hHxHl8qs/iHRFgiMIgAAIgAAIgAAIgAAIzEAgRaSnvJPu23FHpM+YCJqCAAiAAAiAAAiAAAiAgCKwlkj3CXLfNR137SN/OLo2otgDARAAARAAARAAARA4GAIi0n1/OHr+/Pn2G118O+TWWfnmF9ltt6/CINItUnwGARAAARAAARAAARAAgT0gIAJd3lX3fUUjIn0PE8AQIAACIAACIAACIAACp4mA7IDrH4fGdtVt9CLCdcfd3pPPiHQfKlwDARAAARAYIXDjxo3m9a9/ffPpT396dM9eeOSRR5qf/umftpe3n1988cXmTW96UyPtQj/S/9y5c0m/MTtif01bIX+5DgIgUCcCKa+0WGTkaxv1u9TtPf2MSFckOIIACIBA5QjIghAT1ocQ6VPiO0Xsp07rmrZSx6QdCIDA8SOwi0hPiRqRnoISbUAABEBgRwRSdnClEMvu9Ld+67cm7RpLe/fnD/7gD9p+b3zjG5vbt2+7t2adLxHp0ndq1/t7v/d7GxH68pMiiAU7RPqsKaQxCIDAARBApB8AdIYEARAAgaUIiNB85Stf2fzET/xE+7/SyT9x2t8/+7M/a65evdr80i/90uDeP/gH/6D55m/+5ubee+8dXJf2+iOiXMT5a1/72uZbvuVbmscff1xvzT4uEel2MBHXsV35fYv0lIclfciYejCwsfIZBECgbgSm3kmX99TlW2Dm/khNjv1vpnPtxdrzFYwxdLgHAiBwkgiIOJQd8pT3uC0A0tfdfbb35bOIchHy73znO5vv/u7vbn7xF3+x+epXv+prOnlNxpP3xEVA+36O+XUXiQ3x7ZtVroEACIBA0yDSYQEIgEB1COQU6SLGRZR/53d+Z/P5z3++eetb39oKddmVn/ujr9vEHijmiHTfA4Zc091qPcaEs6+99rPHmB3BQmxNtZmLGe1BAARA4FQQQKSfykwSBwiAQDICIg5jwjdmSPrGdtKff/755vu///tbcf7SSy81f/7nf96+WiPvqM/50VdP5J9W5Te0m54q0kUMi9/yACH2fD865lzhvKvYln5W2Ic+S1t+QAAEQKAmBBDpNc02sYIACLQIiODLJdI/8IEPNF/3dV+33SG+efNmc9dddzU//uM/3vz1X/910gyoWHaFufjsE6opIl125L/ne76nfb1HbfuEut7bl0j3gSExzh3fZ4drIAACIHDsCCDSj30G8R8EQGA2AiIEQzu2ct0nYHUQ6RvaSZedc3m9RXbSZUddfy5dutS+o57yB6T6iosr0MWOCmg79pRIF8FrH0jUVmiMuSJ5TWG9pi3FnyMIgAAIHCMCiPRjnDV8BgEQWISACMHYt7u439RiB4qJ9Keeeqp5zWte0/z6r//6oJv+IenUH5CqeJYxQj/21ZeQSFdbVoi7dsWWK+C1jxXp0i72UDN1zx1jTVtuLJyDAAiAwKkhgEg/tRklHhAAgUkERAS7wnGyg9MgJtL1u9FDolW+6WWXPyB1hh+dhkT6qCEXQAAEQAAEjgoBRPpRTRfOggAIrIFADpGu341+/vz55k/+5E+aP/3TPx38/tqv/Vq7G/3Hf/zHa4SwtTFHpOtOeeghwu6gbwfhBARAAARAYO8IINL3DjkDggAIHBqBHCJdX2mR9899P08//XT7tYypf0Cqgnot4ayvmYTs6Xj2nXc3Fn1fPiTy7fXQWGJzTVuuj5yDAAiAwKkggEg/lZkkDhAAgWQEcoh0ed9c/gOj0B+H6h+Vxtq4Aahojgldt33sfM5uu4h5wWfpj9hYw3fxY01bS+OiPwiAAAjsCwFE+r6QZhwQAIFiEFhbpOt3o7/xjW9s5LWX0I98PeMrXvGKpP+BFJHeo4hI77HgDARAoB4EEOn1zDWRggAIbBBYW6Sr+Lbf6mIBlz8alT8eTfkD0jVFuvixxusuNp7Y5zWF9Zq2Yj5zDwRAAARKQgCRXtJs4AsIgAAIbBBQkW7f8w59FiE79TNlc63XU8SPNYX1mramMOI+CIAACJSCACK9lJnADxAAARA4IQTWFNZr2johiAkFBEDgxBFApJ/4BBMeCIAACIAACIAACIDA8SGASD++OcNjEAABEAABEAABEACBE0cAkX7iE0x4IAACIAACIAACIAACx4cAIv345gyPQQAEQAAEQAAEQAAEThwBRPqJTzDhgQAIgAAIgAAIgAAIHB8CiPTjmzM8BgEQAAEQAAEQAAEQOHEEEOknPsGEBwIgAAIgAAIgAAIgcHwIINKPb87wGARAAARAAARAAARA4MQRQKSf+AQTHgiAAAiAAAiAAAiAwPEhgEg/vjnDYxAAARAAARAAARAAgRNHAJF+4hNMeCAAAiAAAiAAAiAAAseHACL9+OYMj0EABEAABEAABEAABE4cAUT6iU8w4YEACIAACIAACIAACBwfAoj045szPAYBEAABEAABEAABEDhxBBDpJz7BhAcCIAACIAACIAACIHB8CCDSj2/O8BgEQAAEQAAEQAAEQODEEUCkn/gEEx4IgAAIgAAIgAAIgMDxIYBIP745w2MQAAEQAAEQAAEQAIETRwCRfuITTHggAAIgAAIgAAIgAALHhwAi/fjmDI9BAARAAARAAARAAAROHAFE+olPMOGBAAiAAAiAAAiAAAgcHwKI9OObMzwGARAAARAAARAAARA4cQQQ6Sc+wYQHAiAAAiAAAiAAAiBwfAgg0o9vzvAYBEAABEAABEAABEDgxBFApJ/4BBMeCIAACIAACIAACIDA8SGASD++OcNjEAABEAABEAABEACBE0cAkX7iE0x4IAACIAACIAACIAACx4cAIv345gyPQQAEQAAEQAAEQAAEThwBRPqJTzDhgQAIgAAIgAAIgAAIHB8CiPTjmzM8BgEQAAEQAAEQAAEQOHEEEOknPsGEBwIgAAIgAAIgAAIgcHwIINKPb87wGARAAARAAARAAARA4MQRQKSf+AQTHgiAAAiAAAiAAAiAwPEhgEg/vjnDYxAAARAAARAAARAAgRNHAJF+4hNMeCAAAiAAAiAAAiAAAseHACL9+OYMj0EABEAABEAABEAABE4cgb2L9BdeeKHhFwzgAByAA3AADsABOAAHTpUDazw/INJ5aOChCQ7AATgAB+AAHIADcGBFDiDSVwTzVJ/kiItdCjgAB+AAHIADcAAO7JcDiHREOk+9cAAOwAE4AAfgAByAA4VxAJFe2ITwlLrfp1TwBm84AAfgAByAA3CgRA4g0hHpPDnDATgAB+AAHIADcAAOFMYBRHphE1Likxw+scMAB+AAHIADcAAOwIH9cgCRjkjnyRkOwAE4AAfgAByAA3CgMA4g0gubEJ5S9/uUCt7gDQfgAByAA3AADpTIAUQ6Ip0nZzgAB+AAHIADcAAOwIHCOIBIL2xCSnySwyd2GOAAHIADcAAOwAE4sF8OINIR6Tw5wwE4AAfgAByAA3AADhTGAUR6YRPCU+p+n1LBG7zhAByAA3AADsCBEjmASEek8+QMB+AAHIADcAAOwAE4UBgHEOmFTUiJT3L4xA4DHIADcAAOwAE4AAf2ywFEOiKdJ2c4AAfgAByAA3AADsCBwjiASC9sQnhK3e9TKniDNxyAA3AADsABOFAiBxDpiHSenOEAHIADcAAOwAE4AAcK4wAivbAJKfFJDp/YYYADcAAOwAE4AAfgwH45gEhHpPPkDAfgAByAA3AADsABOFAYBxDphU0IT6n7fUoFb/CGA3AADsABOAAHSuQAIh2RzpMzHIADcAAOwAE4AAfgQGEcQKQXNiElPsnhEzsMcAAOwAE4AAfgABzYLwcQ6Yh0npzhAByAA3AADsABOAAHCuMAIr2wCeEpdb9PqeAN3nAADsABOAAH4ECJHECkI9J5coYDcAAOwAE4AAdOiAPXr19vHn/88eYjH/lI8+EPf5jfPWIgmAv2MgdLhT8i/YSScikZ6M9OAhyAA3AADsCB4+aAiEMRip/97GebZ599thWLco3f/WAgmAv2MgdLhXr1Iv3G+97RPPtr39f+XvuZb2uPzz/y4OKnH4rccRc55o/5gwNwAA7AgWPkgOziiki8fft289JLLzVf+cpX+N0jBl/+8pdb7GUOZC6WcKhakX7r8Q80Isqv3v1y76/cO/vCpxeB++w/v7O1feOhH11kJzbBt595srn2wLe34zz3b39+53HOnvjz5pn7vrH9lfPYmO49Hf+Zn/xbzc2PvrvZR8zu+JyziMIBOAAH4AAc6DkgO7i3bt1qhfkaIg8b8xGQB6Ozs7N2N30JN+ePPO5xR/OFjzbye/OFF8d3M1xZErD0FYHuinPdQZcddXtd2u463lLBqv1dn/RcRbGKZLnuE+nygKB97PGZt76yufno77XxpYh0sS82xC/FRMdXf9TnnA8mOjbHviiDBVjAATgAB+CAcEDeQZfdXH4Oi4DMgczFkrxcI4KjE+nuDrq87uICKLvnck0FrbR17885zyFYn3/4XzRXL7xiu+OtIln89Yl0n7/XH/zhNr5rP/Pq7b8WINIp7j6ucA1ewAE4AAeOiwMiDGUnl5/DIiBzgEif+YefrgC3At0tRO6u+q676TlE+vV3/uNOYP/CdzS3bzzdzBXptz79oeaZn/4fWhvXf/efbR9AZon0X/ne5oXbZ21fHZ+d9OMq4i7XOWfu4AAcgAOnwwFE+mHFuY6OSJ8p0KUI3Xj3P93ukseKkuyo62669Im1Dd1Tka52Qkd5p1zEbsiOXj976mPNM2/7poHAVpGcspN++/nrzbO//g/b/vIvBM/8/Ou2Mapv8l566J30G7//f3R97/+25uyvPjkQ6dpfj7zucjoFX/nHkTmFA3AADpTPAUS6yuTDHhHpO4h0fdUlRXir4JRd9TUKk74fvquAvfH7b2mu3v01zdV7/05z65MPj0Ry9HWX22fNjd/+se5Vmbd+ffP8R35rENPUTvrt61/Yivpn7vna5uaHLg7GZye9/MK9BoexwTzDATgAB8rmACL9sOJcR0ekLxDpKcJbRXqKoE8pWktE+q2P/5vmmZ/62+1OtivyU3bSbz93rbn+rv+1FehX7/2G7R+Luj5PifTn/vBtzdX/879rrr/zh5prD/y99lf+tUHHR6SXXbTdueacuYIDcAAOnC4HUkT6jRs3mvvvv7+555572l85l2vyk+OeCteajoj0HUS6vms+9Qeh8l3pu4h0Fbvad84x9KqJiGERxmLr2s+9ZvvHnlJkVSS747ivz9z6y/duvmrya5prv/S/NGdPPjrYQddCrX77fJA/Vn3mrV/ffoe8CP5bn/rT5pm3vaq59kvf1dz61P/TfgUkIv10C75yhCNzDAfgABwonwNTIl1FuApz9/MTTzzRivc176n4P3aB/sEPfrB5/vnnR2HItY997GOj64j0HUR6qvhWMS/id9c/HF2jmJ19/vHm2gOvbQW6CGX7moor0u3rLiKmRdRf+9n/uXn+kd/c/rHnHL+e+6Ofa67+1H/f7sSLQNe+t/6/y604lx16sY9IL79w69xxZK7gAByAA6fLgUOIdCvEXeFv743U7BFcEIEu/+rwwAMPDIS6CPSLFy+296xQR6TvINLbXWnnPzGSV1lcES73XYE+teOes9Dd/NgfbP9Q1CfQZeyYSHd90+84d3fcfee+nXTXDuenW9iZW+YWDsABOHD8HJgS6VYTu4I6tpNuxbbbb849O/4xfBYxLgLdFequQJd79geRvoNIlwIkQtwKVP2DUntdPse+qjFW0G7fer557o9/of2Dy2d+6usHY8pn+XYVuS/trJ3n3n9/c/Wer+120N/2Tc2tv/zDURvpM1ekyzfO2LHkc+x1F20v/6Oo7Jj7MLLX3PfmtT/H4y/+zCFzCAfgABwomwNzRLoV2lOfVYjadnJdr/nec9d+x3y0Ql130H0CXeJEpO8o0qXA2B11KzKtaJ8r1OXrDq//y7vab2O59ot/v7n12B9txbiIcvks1+XbWp79V/9o9CqKvFry7MXXN9d//Qea209f8QpriWOfIj2lMOvXTiLSyy7iKXNJG+YQDsABOHB8HEgV6Sqq9f1zV2jrtZQ2PuHt6+drd2zXXKGuu+qhGBDpC0S6FB4R6vKOurzyIq+4yFHEuFyX+3Luivc5Qr37TvNXNfJ1hTKGr9DJdbkvf4Qp7X1tpq4h0o+vgE7NKfeZUzgAB+AAHNiVAykiPSSi7fWpzyGBavuF2h3jdRXqoR10jQmRvlCkpyTAzkL99lm7Qy475dd+4Tuam3/xrxv9w0s5yme5HtpJT/FN2iDSKeSpXKEdXIEDcAAOnD4HpkR6TEDbe+5n+766ilE5uu3k3H52257CuQj1qR9E+h5EuhQ0V6jP+UPSJe+kpxbSuSLd/ZcB3/nSPxzldZfTXwBSuUk7uAAH4AAc2D8HUkW6vjuuR/uKy9T1qftqb0rMnup9RPqeRLoUGRHqItBDr64cqhClivR9+YdI339B3tfcMg5zCwfgABwonwNTIv1URXFpcSHS9yjSKUzlFybmiDmCA3AADsCB2jmASC9DriPSEek7/bFp7QWM+FnE4QAcgANw4FQ5gEhHpLsI3NF84aON/N584UX3erbzU00s4mLRgANwAA7AATgAB5ZwAJGeTX7OMsxOOjvp7KTDATgAB+AAHIADcGDLgY985CPNl770pVmCksbrIyBzIHOx5IFrDa/YSac4LCLhEgLTlx0nOAAH4AAcgAM9Bx5//PHm6aefXkPfYWMBAjIHMhdLuLlg+G1XRDoifREJlxCYvn1hBguwgANwAA7AgevXr7c7uCISX3rppa1Y42Q/CAjmgr3sostcLMnJNTxGpCPSF5FwCYHpy4IEB+AAHIADcGDIARGHsosrQlHeUed3fxgI5oL9UoEunF7jB5GOSEekHykHKOT7K9wskmVjnbKwfvoTn2je/zu/07znwQeP4ld8FZ8RsEMBCx7gcSwcQKQfqbg6FoLhZ7nFUAS6CJPPfvazzbPPPts+9cs1fsGgRg5IDkguSE5I/L7aJaL3uevX11g392JDfBWffbFwrdzazNwwN8qBNQrF0e2kSwHmn4HK3tVi13HZ/KTsCkoOiCi5fft2+96ifF0Uv2BQKwe+/OUvt7kgOSG5oYuke5Qd9GP7EZ/dGDhHAMKB4+HAGvXmqES6CHR2D9kpPPWdwpRdQcmDW7dutcJ8jUKADRA4dgTkAeXs7KxdI3xCBpF+POLGN39cY/6OjQNr1NSjEunsHrJTWMNOYcquoPxrhbTjBwRAoEdAckJyw7eYI9IReT5ecA1e5OJAX5l2Pzsqkc7u4e4TTc/jQmBqV1CEiLThBwRAoEdAcgKRjujKJbqwC7fmcKCvTLufHZVIZ/dw94mm5/EhENsVRKQf33zicX4EEOmIqDkiirbwJScH1qh4RyfS2T1cY9qxcQwIxAQHIv0YZhAf941ALGd43QVBllOQYRt+WQ6sUf8Q6WugiA0QyIBATHAg0jMAjsmjRyCWM4h0RJQVUXyGEzk5sEZBRaSvgSI2QCADAjHBgUjPADgmjx6BWM7MFumPvL258847h7/3P7LF6JH739T89ue3H7cnj9x/Z/P2vlmj7T7/7jcNrm87RE7E55wiAtuIVDiQjwOR1E6+VYVIv3HjRnP//fc3H/jAB9qjnMs190fb3HPPPU3s1+0b6qNt9L5+jo3nton1ExtT93UcbReL27Wncasv2l8/W7v2ut7nuA4CMcGxq0j/zGc+04qO173udY3v96Mf/WjQ+d/7vd9rYvflntoUcSNj6c+v/uqvDj7rdY4gsCYCsZyZLdKtY4+8fSCyVXyPmiHSebDgP1qEAy+8YEvDTp9PSqSLaFShqUe5JmJBjlNi1UUwJFDdNvbc9rGfbfvQ51i/0D29LnGreNZrsbi1TaiPa8/11/Zz73G+DgIxwbGrSI95FhPhkkM/8iM/0tx7773NF7/4xZEZue/ek88i1EOifWSACyCwAgKxnFkm0j/f/Pab3t44G+TbHfKh29LuzuZN7+632FXMs5Oeb8eS3WCwLZEDw9qw26eTEukCgYrHX/mVX2lefPHFFhW9FhOrLnxz22tf7WcFr/vA8MQTT7QiWq+5R/VPr6kdtS9HO4a9pg8k0lfP1a7PntvfjusbS32J3dM2HIcIfPCDH2yef/754cWmaa997GMfG12PCY59inTZIX/DG97QPPfccy2nfvAHf3C0Ky5tROS7P+7uuXvutuEcBNZEIJYzu4t0Ed6bV1sGr8B4Xnd55O3Nm979yEDQy+sv+tqM+xpMSty87oL4LFF84lMaL1NyfKoNIt0gZMWn/Wyabz/62vmuaQe95xPQes+K6pTrKszniHT1yR5D42m7qfvajmPTiECXh6AHHnhgINRFtF+8eLG9Z4V6THDsQ6Tr6yvis/sjO+lvectb2l1yaSM/wjt20l2UOD8EArGc2Umkf/63mzfd6RHjTTPeSZe2b/rtpt1Dd87ZSU8TNAg/cDo1DqxRA09WpItIve+++wavv/gEsYKoglOEVEgc++5Jf+0b6jd1XfvL7r+0tTva1seYPZ9In7Kn9+0xhlcsbvWXY4+AiHERu4KxCnVXoFshLD1jgmMNkS5ckR1u/Vm6262iXl5x0Z33tWyrHY4gEEMgljPzRHr32sqdKro9g6r47m490rz9zuHrMPJ6i7z2ou143QURemoilHjinPaUjdmXTlakL3ndJRVFFdcivKxwFht6396z1/Xzb/zGb7RD6+epfuqn294n0qfEdsxXHcN3dMeVc37iCFihrjvoPoEulmKCY22RLrvj4oe80iI/ruDW98pDR91Nj0fPXRDIj0AsZ+aJ9Py+pozA6y5xEYRIBJ+SOZCS41NtTkqkq2i0ojR0XcHR+3YnOfTZime1M+dox0yxqX1sW/f6XJGufUOxhh5AJFbta/2Zg0NtbV2hLtiGBLrgEhMca4v0lHkQMW7fO7f9JB6fmLff9mL78RkE1kAgljO7ifTNjrr9Ksb2s+81GNlR799B13fR9cg76YjKkkUlvq3LzzVqGiI9gGKqANV2c0Wu9vMJ3NC9lOtzRXog/PZyaDztM3Vf23EcIqBCPSbQpUdMcOxLpLuvwKSI9GGk/SfXTn+VMxBYF4FYzuwu0n1i3PNO+kQovO6yrgBCUIJn6RyYKAlJt09KpIvgVdHrCkgVrnaHPYaQ21/OQz+xdin31hL3Opa7863XYnFrm7X8COHE9SECItSnfmKCYxeRHtrltjvf7vvkrrhOEemhMdhJn5pt7q+BQCxnEOmIutJFHf6dFkfXqGknJdJDgKgQjYlV21f7qOi39/VzrN2+76lPetTxY3Frm6k41aYed+2n/TlOIxATHLuI9OkRxy1ckT6+O74yt/3YAldAYHcEYjmzu0gPvb7i32EPec9O+mkJMAQ18znFgVAtmHO9CpGugMwRlqlttd2uO9Fz+0ksOmaqsI6113tz/NA+qeMr/hznIRATHPsS6aGdcdl9d3fcNbJYe/7AVFHimAuBWM7sJtJzeZpmV3yeEgLcRyzCgTI5kJbl8VZVifQ4FNwFgbIQiAmOfYn0shDBGxCIIxDLGUR6mUIGgcm8nCoH4tUq7S4iPQ0nWoHA3hGICQ5E+t6ngwGPAIFYziDSEYOnKgaJq0xur1EyEelroIgNEMiAQExwINIzAI7Jo0cgljOI9DKFDAKTeTlVDqxRUI9KpH/kIx9pvvSlL60RNzZAoHgEhOvCeV8BQ6QXP304eAAEEOkIPl+95Bq8OAQH1iiBRyXSH3/88ebpp59eI25sgEDxCAjXhfO+4oJIL376cPAACCDSEWO+esk1eHEIDqxRAhfUdUAAACAASURBVI9KpF+/fr3dWRTx8tJLL60RPzZAoDgEhNvCcdlFF877igv/qlTctOFQAQjE/vWJ110Qar5ayjV4kYsDa5TEoxLpAqSIFtldFJEiu4n8gsGpcUC4LRwPCXTJA/5VaY3yh41TQyD2r0+IdMRYLjGGXbjl48Aa9fXoRLoPCK6RILVxgH9VWqP8YeNUEEj516f3/87vNM9dv340IYuv4nNttY14Wc9PhQNrFBtE+gskxKkkRG1x8K9K/CvSqf0r0q7xpPzr06c/8YlW9MqO+jH8ikAXn2ura8SLJjkVDiDSEdgUcDgAB+AAHIADcAAOwIHCOIBIL2xCTuXpjzjYyYADcAAOwAE4AAfgwO4cQKQj0nlyhgNwAA7AATgAB+AAHCiMA4j0wiaEJ87dnzjBDuzgAByAA3AADsCBU+EAIh2RzpMzHIADcAAOwAE4AAfgQGEcQKQXNiGn8vRHHOxkwAE4AAfgAByAA3Bgdw4g0hHpPDnDATgAB+AAHIADcAAOFMYBRHphE8IT5+5PnGAHdnAADsABOAAH4MCpcACRjkjnyRkOwAE4AAfgAByAA3CgMA4g0gubkFN5+iMOdjLgAByAA3AADsABOLA7BxDpiHSenOEAHIADcAAOwAE4AAcK4wAivbAJ4Ylz9ydOsAM7OAAH4AAcgANw4FQ4gEhHpPPkDAfgAByAA3AADsABOFAYBxDphU3IqTz9EQc7GXAADsABOAAH4AAc2J0DiHREOk/OcAAOwAE4AAfgAByAA4VxAJFe2ITwxLn7EyfYgR0cgANwAA7AAThwKhxApCPSeXKGA3AADsABOAAH4AAcKIwDiPTCJuRUnv6Ig50MOAAH4AAcgANwAA7szgFEOiKdJ2c4AAfgAByAA3AADsCBwjiASC9sQnji3P2JE+zADg7AATgAB+AAHDgVDiDSEek8OcMBOAAH4AAcgANHyIFPf+ITzft+68HmPQ/yWxoGMi8yP0seGBDpR5iUSyacvuwwwAE4AAfgABw4DQ6IELxy36ubq3e/nN/CMJB5kflZkmuIdET6IgItIR99T2ORYB6ZRzgAB+DAYTggu8cI9HIfUGR+luQGIn2GSL/x7n/a3Hr8A8mAP/vP72yT58ZDP5rcZ+5k3n7myebaA9/ejvPcv/157zhyPSWJn7nvG5uzJ/7ca0Ouy/0pOzEbc2Oj/WGKPriDOxyAA3DgODiASC9XoIteQqTPENm7Fp2zL3y6efbXvq8T3O97h1fE+mwvFena3yeMn/nJv9Xc/Oi7mzkiXez5/FQBvkRgr2HD59vUNYlJsZhqq/cVV3l4kQcowTf0gKN9Qscl/Q+FWSiWudeFf4J9iFdz7dH+OEQB88Q8wYFyOIBIR6RP7bbf0Xzho4383nzhxam2q9zPUSBEiN943zsa2S13f1Wcq1CWz6njqxhccyf9+Yf/RXP1wivaXW0RefsS6SooFYfQcRehr7bdvoqdbxwXT2kXE+m++2o7JtJj//og/ZUDIZGuY/j8V399cavdpUe1reO72E7ZVvGtfd2ja0fbKR762W0zNRb3y1nsmQvmAg4cHwcQ6Yj0KWF99CJdxLkrRGLn137m27YCbaqgqVBzReVUn6n719/5j1tfr/3CdzS3bzy9d5GeQ4AJTipcQ/G7otPd9Z7q67uv8xIT6dYP92Hombf/jyO+uD7ZvvpZbWisGtPamOo4lsc6rvoz56gPI/JqldiXvirKBU+15bum9zgenwBgzpgzOFA2BxDpiPSTFulzBLqKntSipWJQ+4WOrvCJ2T576mPNM2/7plYgXv/df9YKI1eQhYSiXA+N7V6PicVcglJ9c4WeDwNtZ32UfjHx6buv8yI2VXzKuW9cvRYaP7W/2NG5Un9zYSrjSIxiX8bVcWSup+LUeN2j+i393QfOkCD3Ye7a47zsRZ/5YX7gwPFwAJGOSD9ZkS5/BOqKVNklb195kddeNq++uPflfM5Oui10KuhcoWPbxD7f+P23NFfv/prm6r1/p7n1yYeTRbq1qeIq9eFA+rtCz2JiP8+JL0XQuWNff+cPtaLcHVNFr43T7ef6pCLdtRETr64d207n1F63vshnFbvqr9q1Dx6+vkuu6bgSb4qfdizpI33FT/0jZRc7wdPto/yy1902nB+PCGCumCs4UC4H5or0r33Zf9Dccccd0d83/t2/OdBGbr3nfN5DgczPkvyZEuAp94/2dRd591yFubyTLr8i3J9/5MFWpNv30YWc0mdXwFXQuYIx1datj/+b5pmf+ttt4rj9dxFgKqLmiHTr5xoCU21M+aGi2if65JqKXuuj4CTCUh5uXCGs9kR86pyExKti1c79Qz+6Fdq2UIX6u2PpXKkvGr9+tv7bz+rrFF62n8aQOo7bf9t384fKvnt2Xmycbh/Oy13smRvmBg4cHwd2Eelf+MIXgtruM5/5TPMN3/ANzf/2P/0nyUL9xWs3my+9txevt5642bz06MsbPdr1svt8b/OlL15pXrTfbf7olearT9zbXL37oealL36ouWXu27HUtm8s3zXXrrUl7Uc/1x7a4OD3R8cPHRHpC77dRXbLpSiJMPcJch/oUyJdhZev79S1kIiSh4drD/y9lijXfu417cOEFlMVRK5tFXEqEN17qech0anjapwhn7Vd7KgC0Io87ePGFmoj130iXfyXWDWOtt3mKyblXO+p8NV2OrYc9Z7PvrbTNr7+0sYdS+NRzBRDnZPYOK4/Or/qg++o2KbanrLhi0/HkBhtfzdue4/PxycEmDPmDA6UyYFdRPpf/dVfNU8//fT298aNG1ttenZ21jz33HPNq171quZP/sl/vRGovQDXNcU9vnitaUW5XlNxrEe9PjyWJ9KH/r28ufreDzUvtQ8MEj8ifUuSqZO1ioWI31RxrpMnfdYaP8XO2ecfb6498No2UZ5569c3z3/ktwbjq/AT/3xCKmWMWBsVoRr/nKP0jdkWf8Wer50KwNB9tSti0IrbkEDU6xqDjK/xudjp2NaujjnnqGOKfRXlVqTr5zl2p9pqDBqrHFPEvdpVXGK+6RgSo/bTo/Z3cdV7HMtc7JkX5gUOHB8H1hDprmCXcxHq3/Vd39X836//rxJEuojtpmlkx/nRK1v5lm8nfTvE6ETGdNc8/0NCL7btTrrbV86H/ft+tl3sMzvpO+6ki9iOAeu7N7WLvnaBu/mxP9j+oahPoMt4uUX62jG59kTACc5WpOv1OaLStbvmufri44N7LSRGfSJd47KifU2/XVsuR3yCOtQ2FJO2TxHpdm61L8fjEwPMGXMGB8rjwNoiXXbR5SdZpIswv/ahVqirSFZxq0d3rezPS99Jt6Lcfh4+EPRxDa8j0ncQ6SrQ5X30ELD2urSd87+NSjG7fev55rk//oXmmZ9/XfPMT339YCz5LNflvrSzxe+599/fXL3na9s+8o0ut/7yD0dt2jES/sdRFYo2Jvt5jZ1jG0fsswrgmJDTHVnrq/s55ndq7FOCNBSH+hfqr+P77u9LpIvvirU+IITimXM9RaT74p4zBm3LEwXMCXMCB8rhwC4iPfZOum5Pi0j/nlf8R83//q3/6UC7uGtv+wpIo++Vdzvq7g76MYv0se+IdOXG5HFpgdBXXER0p34F42yB/vz15vq/vKv9NpZrv/j3m1uP/dFWjIsol89yXb6t5dl/9Y+aF26fDUT47eeuNc9efH1z/dd/oLn99JXBPTd+d5d0V0G0FYuePw7UsVSMDhN0+MSo91L9UOEY293VcUM2pW9MpKv/oeOUffVRYwsdY/5JH9/9Le6bd+VDPs69LmO5mLocca9P2Z3yLybSZZxQ3FPjcr8cAcBcMBdwoGwO7CLS7Tvp9nWX5+/+0+aP/uMfa955xw80L/sb/15ApD/UvNQM/2A0tD76r4d30rci0PuHo9u7oxPdydfxxkJbNIv4rT9+/6Vf+/rO4I9WEemK2uRxSdGQb26RCZSj2okJ9V120MVu953mr2qeuedrB2PpmHIUH+T+M297VdvevZd67gownxBMsbMVYxGRPmVnFz+240ZE6pSI3pdITxW3GpMWidhRv3Um9t63i7tiMbUbLjzwjTv3YUZjSfVPfVUuzB1P+3MsWxQwP8wPHCiHA7uI9M997nPNo48+6v29+fG/ap76d97aPHXHPe3vy/7Df9+7nrhrjPzhaOjHCue+X1ikx77dpe//8sb+wap7T86DIn0j/n3vpLexbL/Rxd2IRKSH5nh0fUmB0FdcrA15BUZEs+yySxsR7nN3zwc2b5+1O+SyUy7/O+jNv/jXjeyOSxs5yme5HtpJH9iKvNKjgkgIeWwiXWKc2nFVYRqKrTSRnjpv0m6uCFYspkS62Na2WrTmCu1d/NPYdYc9xU/tw7GcRZ+5YC7gwPFwYG2R/sQTTzRf/MMnm//rv/knzQ/d8armP/sb/+6kSNd1xh79IlmFb/d6zFDgXWlenPgKRneMFJE+tC/fQtOL7aFI7/zpHhDUR/fY93N9mDqX+VmST9b/XT4f1fekyx9/urvoS8Cb6rvknfQp23r/2EW6CrrQTrUVm76EWLJjq/ZDDwGhXWnrxy6CdK5I1znf11H9s7Haz/YBYArTffnPOMcjNJgr5goO7MaBXUT61OsuX/nKV9o/HP3J1/7nze+f/y8nRfpuO+muAHbOAyK9fQUlSaH6X2Hp161ebA9FuuPD4DUXvd73623pvfARkR7ZZa4h6Y9dpMscTe2m55zHQwpKFcFW5OaMN7dtjWmXh5bcvmF/NxEAbuAGB8rlQE6RnvYVjPLayZQwDovYkeANiPRRO6+QThmnF9vz/O77zfEFkV65SD+F4rnGg8Yp4HDsMeg8LvmXjWPHAP/LFTPMDXNzihzYRaTrO+lPPfVUcG86+SsY7+7eDQ8a8r7fHRHTiPTB6zFBXGfcOKrXXU4xSYmJxQcOwAE4AAfgQH0c2EWk/+Zv/mbz/ve/P/r7jd/4jYn/mVFEcO+82306NtlJZyd98NRFka6vSDPnzDkcgANwoE4OzBXpP/26/6J549/9m0m/f/Gj/+3k++hzXv2osS0iHZGOSIcDcAAOwAE4AAcq5MBckV6jUD5kzIj0CpOSHZM6d0yYd+YdDsABOAAHXA4g0st+NQaRjkhn9wQOwAE4AAfgAByokAOIdET61N+Q8oejFRYG90mec3Z24AAcgANwAA7snwOIdEQ6Ih0Rzg4NHIADcAAOwAE4UBgHEOmIdER6YUnJbsX+dyvAHMzhAByAA3CgNA4g0hHpiHREOrsncAAOwAE4AAfgQGEceN9vPdhcue/VfFVigd/JLvMi87PkwW5KgKfc5530wpJ2CSHoy04RHIADcAAOwIHj4MCnP/GJVgjKjjq/ZWEgAl3mZ0kupYjwqTaIdET6IhIuITB9j2MhYZ6YJzgAB+AAHIAD8zgwJcBT7iPSEemIdDgAB+AAHIADcAAOwIEVOZAiwqfaINJXnBCeMuc9ZYIXeMEBOAAH4AAcgAOnyIEpAZ5yH5GOSOfJGQ7AATgAB+AAHIADcGBFDqSI8Kk2iPQVJ+QUnwSJiR0OOAAH4AAcgANwAA7M48CUAE+5j0hHpPPkDAfgAByAA3AADsABOLAiB1JE+FQbRPqKE8JT5rynTPACLzgAB+AAHIADcOAUOTAlwFPuH5VIv3TpUsMvGMABOAAH4AAcgANwAA7k5sCSh4cUET7V5qhE+lQw3F8HgevXr69j6AisaIIfgau4WDgCNeVNjqmoDb/a4s3BmRSb4JyCEm0UAcsXRPqM100URI55EbAkzTvaYa0j0g+L/ymNXlPe5Ji32vCrLd4cnEmxCc4pKNFGEbB8QaQj0pUbxRwtSYtxLIMjiPQMoFZqsqa8yTHFteFXW7w5OJNiE5xTUKKNImD5gkhHpCs3ijlakhbjWAZHEOkZQK3UZE15k2OKa8OvtnhzcCbFJjinoEQbRcDyBZGOSFduFHO0JC3GsQyOINIzgFqpyZryJscU14ZfbfHm4EyKTXBOQYk2ioDlCyIdka7cKOZoSVqMYxkcQaRnALVSkzXlTY4prg2/2uLNwZkUm+CcghJtFAHLF0Q6Il25UczRkrQYxzI4gkjPAGqlJmvKmxxTXBt+tcWbgzMpNsE5BSXaKAKWL4h0RLpyo5ijJWkxjmVwBJGeAdRKTdaUNzmmuDb8aos3B2dSbIJzCkq0UQQsXxDpiHTlRjFHS9JiHMvgCCI9A6iVmqwpb3JMcW341RZvDs6k2ATnFJRoowhYviDSEenKjWKOlqTFOJbBEUR6BlArNVlT3uSY4trwqy3eHJxJsQnOKSjRRhGwfEGkI9KVG8UcLUmLcSyDI4j0DKBWarKmvMkxxbXhV1u8OTiTYhOcU1CijSJg+YJIR6QrN4o5WpIW41gGRxDpGUCt1GRNeZNjimvDr7Z4c3AmxSY4p6BEG0XA8gWRXrBI/+QnP9m88pWvbETI1fRjSXrKsSPST3l29xtbTXmTA9mc+Intb//2b2/uvvvugeuyAL/hDW9o7+UcfzDo5sO+x/P5UMO1Y8ZZ+Cq8nRNDim4J2ZX1UDSP2Kj1x2KNSD+wSBdSvuxlL2t/bTLEyH758uVtP+3vHq2tYyK8Jekx+T7X11MU6So8RHzI+ZwfivQctIZta8qbYeTrfErBL1R35XrsR2wj0mMIne69FF4dKnrLZ1uzfWLa1Syu5tC+Md2icfrsyj3qfzN6IEKkH1CkK9m1wFvippBdSe8erR333jGc76OoaXFS7KdwcRfZuX1jtoUD8ntKP4rV3AdF7SeFXzjMzzwE9pE3qR4d44PaFH7CSeGmzVet45azWr9dIeOei6iRMeU4N1dS5yHWbireWN+Ue1ontcbN3SFdwqFd10D1OXVdSMEhN84pPvjaaKzKZ/FTeOhyVM6nuGnnSXmvdnVszR9r3x1D+szlido/laPlCyL9QCLdElsIZsltP7sk1ATzEd4lvdsndP66172uSfkN9V/7uiXpEvshDBW/UDG2RV4LmFyf6jvHX13A5vQpva3iIzwM4Wtj0AIuguXRRx9tC7X0t4Xe9nM/p3BY2pzqz5p5E8NIa1eo9sicaxvdXXPtaU5qf9vmUAt1DL9YPLF7bty+c+07JYS075ocj8Wr48052pqpdUBrnBVfej9UIxQbyw/xyXJIuCTj64/1Ra/7+rnjT/mkduYc18Z5ztihtiFsbe75cJQ2mrvuUefJYizt7Y/PrrSx49t+7uc1c8G1e+hzyxeZq11/14jljuYLH23k9+YLL65hb9LGrsFKvzV/lMgugWVypFhrsfG1UR/WLCbiwxThXT/Vh1xHS9Il44QwnMLPFhF3bqb6zvFXcN0ntnN826Wt4i34ya9dmF2b2lYKvRb4OffdtnJeGo+tf7k/r5k3qb66eeH2kXopc2rnVXNHOa/9XZEq92K8ccdZ83wKP/FLuKq+69ih63pf8sAVMxqbe92NX/v5jjLWWrV6Kl7f+LFrEo8bhzvX4rfGrTb0vhz1R6+5eFkOad2Q8fRH++ncWF+kna+fzp36oHb0s9pfclwb5yW+aN+p/NT4fTj65lLtylFx1rlw78m5ju1yRdtM2dZ2cpS2a+WCa/fQ55Yvgteuv2vEgkh3njKVvFqUYmTXYuIWM3uuiZYyUTHCh5Itxe4ubSxJd7GhfcR3wcUt6HJP8QthZIuT+CRFRa5P9dWxU47i377xTfFrlzaCjWDtxqP4u9ditqWdXcxj7e096R8q3Kk+WJvH8nnNvEmNWXNBa5b2s7VMr9u8kusyL7Z2LeGAjjX3mIKfxuv6G/PVx2cXA8XJJ1hC/q/F8ZR4Qz7Y61ofXSwsVu496a/35ej7UWwst3RdFBz1R6+582Ix9Y2n/bQ2+NroGLse18R5Vx9svxC2lq8uV9WGbaPX9Wgx1et6tFzRzzp3lifaz3dcKxd8tg91zfJF5mrX3zViQKQ7Il3JqsVniuxrTIBrw0d4ubbvH0vSXcfXgivJbxPfvSf35bP7o8Xpc5/7XLsbqAVErmtf28ftn3ou+B4C41T/UtqJ/4KPXUzdvoKbtNFYdZFQXFOO2te16zuXdlaop/b12TuWa2vlTWq8Wp907tx80Pm1nNC8cn2VuXEFlXy2+Zrq05J2rk9L7Lh9fbEoBoKNYufG7/YPnYvdpRxfM17Nb4lHfJMfrZPy2YeD3nd5o9cUFzlaDoltyz13XLmvGLsxah+5pz/il/RVH3R8/aztlhxdH5bYWbuvxqrzpfi42Mu55aZiZttpW7Er+at2rd9uf3cupJ3cm5v70mdpLlgfD/nZ8mVXgS791vipVqT7FjFNEiW3/SyAa2L5EsR3zSbY1KS5hFc/pvqsfd+SdK59xVbx+N3f/d220LjJrzjK0f5of7e9+CRYSlGJ9bW2pj4LxofCecq3Xe8rfr7FdVebc/uVwOO5Pi9tvzRv5owv+Gp+/fIv//L2QVbzKcQBzR3lvOaVfhYf5NzNvTl+LWkbwk9yXmNNOVrhYfu7sSlOc+u04qTixMUvFYNQvKn9pZ36L7hIDO94xzu2oteda9+c6n3ljB1Xbe9SRwRzH6a6prrz6I4/5ZP1MeXzGjinjLNLG4uHxTqE4y5jSR/FV+zquYu/jycpY0m/JbmQMsa+2li+SB7s+ruGz9WKdAHPktQmhCbQLgV4yeQo2ZfYWNLXknSuLcXVFhzBUYpzqEDoOIq7tFXsxSdEuiIUP85ZXF2s3YXTPZf52uXn0DzexeclfZbmTerYOmdWBGneyXzFOKD9dY41x3R8+ewKWb2e+5iCn/VNY7Ex5PZV7S/heEq8Ok7oKH/k/ZrXvKatqdpGeeDOr8VN2mo7Ofp+fBzSOqy2fUfhn/xafvrG2Me1NXDeh5++MUI4Ku99+Os1mxPyWe6567Llhf3s8yl0bUkuhGwe4rrly64CXfqt8VO1SBcAlbhCXltUNBGkjf1x+2lSuMcli9yhyW5JamNf43NogdCFQeZCioniqIuDFK1Q3138knn0ze8utkrpoxi6xXgX31zMd+l/aB7v4vOSPvvImyX+ld43BT/JVa0JEk+sRtt4QzV7SZ4s4XhKvDaGNT9rHXXXLT0XTMQ/OcbwkXrszkeKfzpnOpbvGHpwSLFv2xwaZ+uP/Ww57d4PiXS3jT1XfN11TTB485vf7J1LwVrnMOaLHcd+XpIL1tYhP1u+INJn/FPCvifOR3b1IUbm2D3tHzsemuyWpDFfU+5JobGF2D4QiR0Vl9JWCof4Ie2kgMhnOUekDxFXjlp8Q5+1GA+t+D8p/oL5Lj+H5vEuPi/ps3beTPmi8xOaa7keEliST3JfjvZnaf2y9lI/p+BnfVP+y/XYj3DYx32tOb56FLOn95ZwPCVeHSf1qHhYTuySw4qNj0N6z47jft4F0xgvUzGw7XLgbMdY8tlyeokt6ascmMoJ3zhLfFmSCz5fDnXN8kW4vuvvGjFUv5MeAzFG9hiZY/di4+m9Q5PdklT9mnsUO1KofcVaFg0rEnwFWuZAFgn5Z12xI/187eb6pu1lruSXnzECOn+7LPBi7dA8HkeU98paebOGlyqifAJL7MdyaGn92tX/FPysb7Ea7fohHD51ka5zavNV89hXhwUji6niNsUhbec7ig+h8XTOXEFvzyWWtX5SeLXWWLvYCeG/iy3po/iK3bk/S3w5lXpv+bKrQJd+a/wg0iMoxsguZLaFxf3sWxAiQw1u/diP/Vjz8Y9/fHBtnx8sSXcdO4Zf7J5vPF1opPjrYrRGIZd53KWY+Xw8tWsu5rvEdmge7+Lzkj5r5c0SH7TvlMDSHHJrlnu+pH6pD3OPKfhZETGnjoRqduhBJsX/JRxPiTfFB20TE8YWN+0jx9g9t517rvxyOWPPp0S6jLuPn7VxXtvnEC9dPOesdXNywsayCxfUxpJcUBslHC1fEOkz/imhhAmswQdL0l1jFjtSqH3FWhYUKUKpxUdtIdJ3nQ365UZgrbxZw08VUSEBqiLdl39LFuolvpeE35I4UvuuHa+KPamR7o+KNl8dlna7zLfyK2TTHd+eqz8y7j5+1sZ5Hz4zxuEQsHxBpCPSD8fGwMiWpIFmyZdVkLs7A3OLu/gkfRDpybDTcM8IrJ03S9xXETUl0t2cdM9L3UlfgklpfXPwRQWwO5dyboW7i4WKe9tHP/u4oPzSNqGj7yEw5KNrI+av63vKeQ6cU8alzXEiYPmCSEekF8dkS9LiHFzRIVmg9rWjs6LbmCoQgZryJgf8teFXW7w5OJNiE5xTUKKNImD5gkhHpCs3ijlakhbjWAZHEOkZQK3UZE15k2OKa8OvtnhzcCbFJjinoEQbRcDyBZGOSFduFHO0JC3GsQyOINIzgFqpyZryJscU14ZfbfHm4EyKTXBOQYk2ioDlCyIdka7cKOZoSVqMYxkcQaRnALVSkzXlTY4prg2/2uLNwZkUm+CcghJtFAHLF0Q6Il25UczRkrQYxzI4gkjPAGqlJmvKmxxTXBt+tcWbgzMpNsE5BSXaKAKWL4h0RLpyo5ijJWkxjmVwBJGeAdRKTdaUNzmmuDb8aos3B2dSbIJzCkq0UQQsXxDpiHTlRjFHS9JiHMvgCCI9A6iVmqwpb3JMcW341RZvDs6k2ATnFJRoowhYviDSEenKjWKOlqTFOJbBEUR6BlArNVlT3uSY4trwqy3eHJxJsQnOKSjRRhGwfEGkI9KVG8UcLUmLcSyDI4j0DKBWarKmvMkxxbXhV1u8OTiTYhOcU1CijSJg+YJIR6QrN4o5WpIW41gGRxDpGUCt1GRNeZNjimvDr7Z4c3AmxSY4p6BEG0XA8gWRjkhXbhRztCQtxrEMjiDSM4Baqcma8ibHFNeGX23x5uBMik1wTkGJNoqA5QsiHZGu3CjmaElajGMZHEGkZwC1UpM15U2OKa4Nv9rizcGZFJvgnIISbRQByxdE+gyR/uEPf7jhFwzWWuNRVgAAIABJREFU5ICK9DVtYguOwgE4AAfgABw4fg4g0meI9LOzs4bf/BiocK3pCK/y8+rUMZYdmFOPMWd8teFXW7w5uROzDc7U9hg/7D3LF0Q6Ir24hV3EuSXuqX7WB5FTjY+49rdA2eIO9vOwrw2/2uI9VD6A87w8PNQ8lTKu5QsiHZFenCBGpFPUSimYx+SHLe7H5HsJvtaGX23xHopj4Mx6Nod7li+IdEQ6Iv2ArzGxk04Bn1PAY21tcY+15d6Yd7XhV1u8h+I8OI9z7VBzcQzjWr4g0hHpiHREenEcOIZiWpqPtriX5l/p/tSGX23xHop/4IxIn8M9yxdEOiK9OIGW8rrLpx57rHnfux5s3vNgmb/im/g4lZzspFPApziSet8W99R+tOs4WBt+tcV7KJ6DMzV+DvcsXxDpiPRJITmHYGu0TRHpIoKv3Pfq5urdLy/yV3wTH6fwQKRTwKc4knrfFvfUfrRDpMOBfHWIvMyH7Sny1vIFkY5InxSS+06EFJEuO+ilCnT1S3ycwg6RTgGf4kjqfVvcU/vRDpEOB/LVIfIyH7anyFvLF0Q6In1SSO47ERDpFLV9c+4UxrPF/RRi2mcMteFXW7z75JI7Fjiznrl8mDq3fEGkI9IR6ZlemWEnneI8VZDXvG+L+5q2a7BVG361xXsoDoMz68Ac7lm+INIR6Yh0RHpxHJhT1GjbLYK2uIPLPHFQG361xXuofADneXl4qHkqZVzLF0Q6Ij1RoF1uLpw731y8kj/heN0lP8Z9QXqyuXjXuebCw2fN2ZWLzflzF5rLe/5KyicvnW/OX3oywkPHx5FvsXvpOIoP5+653Ppw+Z5zE/6E7K7jSz83oXH8121x39XOfvotwWpJXz92EvO+8HO5Ng9rqcHr5ee+4p0XY3h+jtUOOJ/enObkouULIr0kkd6KpHPNuXOx3/QiLWKjFV8jYeNLGlkAhuMO+yLS9Q9CX7x2s/nSe6e/VaaU111aUWDmtuXYXRebJ88cwRMS6Q9fmOCk8mbMzeDYG0EsxU7a7EukD/wxPkyK9EB+9r47WCblnC8Pd79mi/vShaTFysFonr0Oi76WWW7EsLJ97eZArO/h8RtwTPLOYOjFVXKszUfXfxsnIn0eB10sD3e+dl4eIwb4nM4/yxdEekkifWphD4koX7+tsLKLo4csrV2zEG77qwCTo2njG3eFa6vupD96pWmuPeT9JphbT9xsXnrUiu2Hmpcaz49j49hEel8g7aIvXHCuJfOre6DrxamHUxEe2J1qES0jW17+uVxUXjv+j8bs/Nw+bLY2h/10XFc4Wf86/EIPqe5160v3Wcfo52EeXqn9bHFP7Rdq52ISauO/7om7xd6tHxYrxcTT98zMo8vZ0ZyrnfnHNfAT7lix3V5zhLoXV8HnyEV6G5dvM+Cc2SwyD7vb/NzOZTff+oAXzZ+NraGNjkPaX47u/WQ/t/7M55KbF2vwyrUXOm95pviPuNTH4OVfG+s07lNjDLF1870f/2yTzzo/7txobAM721jG86o2zrn/wmT41bbZ2uj8GNj36hozlpO/6mOuo+ULIv3kRLqSayNGNmInVuiEsL77w+uuGHETbv3zw4p0K9pf3lw1Qr92kS6F+vyly/1rMnMWM8+DwJBnc/nU8d1X6MVP97r9fOYIo7ZobwpxF5/n9Rtf8T/nvhrj82V/eWOL+9JFxMVkli0HV7ffcJ59WJ017py4fYfXA33n8NDTdjl+obkeXvfi6sXMxil29CFzbp6M2y+Pd2xzMGeCsY3Liur2syvmJEY3p7rPbh67Y0iuWhEuYw7Ws9EYHr+tnx5+uOPOOd8Hzi0OjhBtP1thKTGqiLf3NsK5x22Mu7VpxxTxfdF9bbEdz/LVzu9Zc/mS/ItuPydtfrg8v3KxuSivYzpt3HPxo/fbw7lRvyk/u7zrbXaf7b+IuT6seW75gkg/CZG+IVGbgG7B64ndEb8raD35uvvDxXPYp28ryeW3vSZBxdbqIt2zMa6XxjvpY5Fud9yPV6SPC++snfRNkXcXzLZQuwV1VBB7PulYPad6/oUWj86+u4O+4aC74JidspaPct9ZtLqxLX8Fj24RcYXTqOhHYxrH5+Kz9WW0KLr91jm3xX1pXro1Yzs/ushvjnYuZUwXy4EPZs5G4irWtxVauuBb8VoKfqEaObzuxceDjWLe86nL3+665fJ8DNbmy2Cu25wZz5Mv9jbHNT9Gebvh0yCXN7G2bS80F/RvaiJ5Gs/psZ/jWObjqzby4zzkVzuufTBxPg/wVsymcHf6a1zdjniMh2Nc4/Oww99FDeqCwwvlk8YXPRo/21zUWrOx6RsnanM9viDST0Kk706IPqGHu47tDohZkOt43cWKdHn95UrzovMNMEcr0ttCs9l12JwPhIC3EDnCIFj40tuERF3o+lBoaxF3FwZTYDeFc7wYeBaydvcoRaQ78Y1yQh8gxI7fl24xM0U/Q4HPLQYE014wRmqOZ8GXOjMUaAGsAn2HO7KBvgsxXQO/VgAZQdlec3JniMMGR2/cNk7h4Xo8WiPeXrB5+DCKycYzjn2ct5rzNm7N54BNwwWvXW0z8tMTi7bd4bh/nMX/MC6WjzKHXnzc9cA932IQHqPjhc6R4mk/6/X+6M2N7Xh9O+Wdz++5NkYPG14+TPuuPi09Wr4g0osV6Z4EkEQxC8BSQvT9hYQqOOToCiFJjv2RdPWddOd9cv3jTznaHXL3np6/eK0Zvbd+rCK9LV4yx45gGBRzbyEeF8aeM2n3dNyQwJP7s0X6Jeefbkc76ZI7KfwVTneLv/qoDy0+f/q4Q7ngydl2gQldT8OvHzfe3hb31H6p7WRBDM3h0EYX7wBDWfgGNSWEiafv5p/i+7FDfeP4DH0ct10LP8ulYb7Zh5WNH15hYOPs+ToVS8r9teL1j2V9lzgDedNyQ/LQ10dF+jCfe3EW6DMQdjJuiLsp/cdc8cfsb5cX5wCfNlgOcnCDiWA35GQAg3Y92ODuXRu6fr4xBJ82D9y1Rm20861awzev3auUWouHvjoYq73BXG/GdbXMhGYa+enNxRiHHJ+ML3N4om0tXxDpxyTSveTpnoK3hHbJGTnvF7x1CaZEW3JcXaTruy2eY+x1FxHoX33i3tEfnR6nSNdCbBdKva6Lod2xWsCPTTEOFXHliBTJUJuR4BkIPfHN8X9bICVGG4e0Gy4I7ldOuoW6FwCh2F0Mu/Hd/PPlVrrADY05fd0Wd8V37rFdxCO1w41Vz8cxW1x88xEXTmp7KO5Dcz6NzxQOa+E3NY73/kC4qIDpjj22Pl7vHnfWeL0Cys0bx+9tW18uS7thPzdX/fnv2N7Uh7lCzztH2/ri2p8+z4qzTwxv/AzVsTa/XfHsraEW900+O/20Nru1W69J7rrXWzxb/XK+OT+yobWhG+P8XRecr3qWuffYisQ9nLuN30aoR/3cbAq4/mtN7HNxet6HfqS3t3xBpB+bSHcIPkUCIdYcUikR+8VxuFiMF8t04k356t5fVaQ7r6lcvXv86orumA+P3Te8+AS6tDtGkd4WpU2has+3PHIWxu1i2c/rNCcsR+Zxzp331c49cYhticUtvO4rFC4mo3Y7Ls5uPDlsuvbl3BZ3e/90PjucXWFuFJfV8Gv5N86LQV3d5l+fa+pH+Hg8Il3yaZBr7TwNxfY2zvYBRYRaYF5bPDcP2K3Qc//QMNBHxtN5iGDt93POnEy3XY1XAa67tWuL6QbL8RxsNvUGmAQwdHFvx+7aKY/FttS1kMZo/XI3Vbbz7GLmjt2dj3wezbn0l7Zm0yWAj33I6zHq/Bj52drpHg401gsPzxnPjW/+ueULIv2YRHqQhA7ZnOSLJZAl6vTnQIGd8Gna7pjEBxXp8k0uTfx70I9OpI+KbVeAuuLqFMm2ne5qjOfFnct53BoWPC187nFUmB1exRdSx/9tHxnPE8dgkRj2cxe6sKDu+rh++859i1bYZhxnF/Opc1vcp9on3VehY3fWzc6Uz9b8eeuxiOM1nDvf2Ltcy4LflpN9bC7X5vkZ4LVnjBS7+eIVP30CKjBvjgjzzvu2Lk3kn8vJNtfDArLDJ+RnP1cpOE61yYfzxk8Hv96XANabzQr7Lwtx3EN4yBi+ee7bD7g+qL99m37szufRWrCd/76Pu8HSx+zcH+TE9DwP/Bz0VZvr5l7MZ8sXRDoiffvVRpIsPtHRX4snZIx4c+6tItLf+6Hmq57XW/yX4qJ8uMt+bDvpgWK9LXzO/e01LUzho3DFJ0b98xwvcHEx171jOCrc20Lq+L+9Fi7KbTFWwek80LpFul80wvH74/T5IjZC1+faj7e3xd3vY9yG26fDyvOwIzi3C268HsTnNY5JfA7ifd0Y5pyvhl+bRxO11OGe62M87ngeuXZSzleLd5t3G25J/K5gdu5LfDGB2HLO9HVzcxyXhwst/nFutnYifo7HSc8b2zcbzoqrL972mj93fXMwH/eUrzq076X76vJw/rxz7XkIkXbhNcHMlQ8fxW5z9I7rtJm6b+d8yWfLF0R6ESJdyDtR1Ef3xwm4lEjxBcIQ3yHwEkL6+q4i0gevudhvbFn2+eh20qNz5RTJSGG38yRc2adI7x8U/XlifZnn33AxCedBh9VcX7p/bh3nq8V06Wdb3JfZc3gR4M8Uxm09GtWt4fzZeVOfw3OQrw6thp/kkRGaGtfUcZ9xrxav4Ud0HbKCaVRzurWw54VP2LkcGPNUMLQPAj7co36amHz9U6/lwtkd38Yc45Ft29mZxn3wfebtvA3XgCcvue+S6+tGw4eldmwnN9o5cD7rK0rD+R+OE9/0eLK5eM/4dSiXD9N+PtlcvHR5u3mZsiHhzsXSc8sXRHoRIt0tOrufLy06scReSrw5/RHpu3NgDs5dW2eRGy2YYT+EK30hDbfrxpAFICxShbexXZH4fcd/d2GV3ZfAbqUPIzd3wnkQGMsd13c+0xeffynXbHFP6RNr02ISmLfu3nABtrZ2mrcNfuE5mOLa7vdXw0/yyBUePk4Eru0z7tXiNbFMxtD+K4w+rHk4tBGA+jAcrzPjnJTxte/gaOZk0k8Tl+V36udcOA/H73DYxhupfS0+vvtTuA/ue+Zt8y+GWx+8rzyZL7owc9LGNBjHt85MPLgN+GX+DqmdU4OVz8+BjfDaNZyD3WuPa8fyBZF+aiJ9YucqJoaCxc2xGevvEm3Jeeki3b7+Evr8ngcf7J/GAwVfYk2Jdwme8b7OItcWx7SCJFyJL55uwep2afriPV5EY7zqBOG4j2tv7IvE5VtIXL/683aMzcIVXrxtcQ/4NFh45vkRn6veX187W9x9bWZfMwvmFvNBjH6/dpu3zlZKLZrzEJYS92r4hTBz6ujgvzF3akNK3GOu+/Gfinm1eB3/p8as8T4478bPGrkiMVu+INJPSKSfCqlTRKsI4JA4LuX6cYj0Ey6g7W5I2kNHntzpRH3sAWTNcW1xX9N2DbZqw6+2eA/FYXA+4TUmwwOq5QsiHZE+udu77+KGSKeo7ZtzpzCeLe6nENM+Y6gNv9ri3SeX3LHAmfXM5cPUueULIh2RjkjP9Eem7KRTnKcK8pr3bXFf03YNtmrDr7Z4D8VhcGYdmMM9yxdEOiIdkY5IL44Dc4oabbtF0BZ3cJknDmrDr7Z4D5UP4DwvDw81T6WMa/mCSEekFyfQeN2FolZKwTwmP2xxPybfS/C1Nvxqi/dQHANn1rM53LN8QaQj0hHp7KQXx4E5RY223SJoizu4zBMHteFXW7yHygdwnpeHh5qnUsa1fEGkI9KLE2gpO+nve9eDzZX7Xl3sN7yIb+LjVOJLrCnxTtnhPguBLe5wYh4nasOvtngPlQ/gPC8PDzVPpYxr+YJIR6RPCsl9kzdFtH7qscdaESx/nFnirwh08XEKO0Q6BXyKI6n3bXFP7Ue7joO14VdbvIfiOThT4+dwz/IFkY5InxSScwi2RtsUkb7GOCXYQKRTwNfioS3ua9mtxU5t+NUW76F4DM7U+Dncs3xBpCPSEekZ/kOC1KREpFPAU7ky1c4W96n23B9yrzb8aov3UHwH52GeHWoejmVcyxdEOiIdkY5IL44Dx1JQS/LTFveSfDsGX2rDr7Z4D8VBcEakz+Ge5QsiHZFenEDjdReK2pyiRtuOL7a4g8u8PKoNv9riPVQ+gPO8PDzUPJUyruULIh2RjkhnJ704DpRSMI/JD1vcj8n3EnytDb/a4j0Ux8AZkT6He5YviHREenECjZ10itqcokbbji+2uIPLvDyqDb/a4j1UPoDzvDw81DyVMq7lCyJ9hkgX8PjNj4H+MWVNR3iVn1dgDMZwAA7AAThwTBxApM8Q6aU8aZ26H5JApx6jxqcPIvqZI7suu3KgprzZFaNYv9rwqy3e2NznvAfO1PQ5/LJ8QaQj0osTxJakcwh+bG0R6RTwtThbU96shZlrpzb8aovXnet9noMzNX4O3yxfEOmIdEQ6fzhaHAfmFDXadougLe7gMk8c1IZfbfEeKh/AeV4eHmqeShnX8gWRjkgvTqBZkpaSPDn8YCedAr4Wr2rKm7Uwc+3Uhl9t8bpzvc9zcKbGz+Gb5QsiHZGOSGcnvTgOzClqtO0WQVvcwWWeOKgNv9riPVQ+gPO8PDzUPJUyruULIh2RXpxAsyT1Jc+nHnused+7Hmze82CZv+Kb+Ojz3b3GTjoF3OXDkvOUvFli/9T71oZfbfEeir/gTI2fwz3LF0Q6In1SSM4h2BptLUl9NkUEX7nv1c3Vu19e5K/4Jj76fHevIdIp4C4flpyn5M0S+6fetzb8aov3UPwFZ2r8HO5ZviDSEemTQnIOwdZoa0nqsyk76KUKdPVLfPT57l5DpFPAXT4sOU/JmyX2T71vbfjVFu+h+AvO1Pg53LN8QaQj0ieF5ByCrdHWktRnE5FO4fPxouZrKXlTMz5TsdeGX23xTs1/rvvgzFo1h1uWL4h0RDoiPdMrM+ykU5znFOelbW1xX2qvtv614VdbvIfiMzizDszhnuULIh2RjkhHpBfHgTlFjbbdImiLO7jMEwe14VdbvIfKB3Cel4eHmqdSxrV8QaQj0osTaJakvuThdRcKn48XNV9LyZua8ZmKvTb8aot3av5z3Qdn1qo53LJ8QaQfm0h/+EJz7q6LzZOZvtv78j3nmvOXnhwJ9ycvnW/O3XN5dH0O+VLbWpL6+h1SpL947WbzpfdOf6tMMa+7OJwJza8P4zWvZeWPE9/I59i9TDk08kHGuXKxOX/uQnM545gpeeP1LZNPwrULD++wQO8BKx8O+8Jv91y43FxYkUP7iteHdU3XwHmHGpCpJh0D7yxfEOmliXQRFefObX7PNxevGIKHRMegn/b3HeNCISTidl9YjP8JyWdJ6kusZJH+6JWmufaQ95tgbj1xs3npUSu2H2peajw/jo3yRLos3r653ogkhzP++X2yuXiXv3/Pxe6+7wFO5yfGkfC9buydxJxyyYlPfdkeY/e0vz22ItHi4clF7edtL/2dPnsQnil5s8VFfd/lGIx3KMr9Ij3M1S239oCVD4e18Gu57uaj2dzw5oKXpzY3EOm+eSv92lq8Kj1O/JuvdXyYWb4g0ksS6VKo3Z2S9rOz0MuC6i3mPnJsFkOzQIxI0Y5hBYn7uRvfu7DsssAn9LEkHfl8dtb+J0b6VYfR42yRbkX7y5urxkZ5It2Zfx8/nGt+ke7038xPJzTiD3R2XmIcCd+zQmTsix3n7Gz6oWIr+JzYrZ3WJ/OvUl3cJucEk40w3dqd5LHkn2PHJzzb3JuHsY3B/ZySN277dc/H8xgW6Q4uPhx9WPnarXxtDfwkZvsvne01pw57c8HLU4vpsYj0zdqzeVAZPoAP7w0eZLfzOWzjy7kW0+2DUCSHvLhqjRmOM/RT2yw/rsGrlFwdYGLqmtvfy78W+yEeI9zbeuVoA98Ymzqpmzuuja62Ov238zd8uG81zvZeoFYMfPHN/3CNcP1osTB+jud+2N/mtIvn2ueWL4j0YkS6LchdcRglVLToaEHpku38pcvtDumIoNtiqO2njyM/drCRSmZLUl+/WTvpno1xvTTeSR+LdLvjfvIiXUVSEtd67sQ4Er7n571vzne6FopBYrSLTBt3YFEQvk/dH+SE5KBjSzEdtDlrwrj0uKbGnZI3qbbmt5N4h4uliIbx4mdwMXi04wawmu/TPAyX4xeKbXjdO+dentrcGGO8BJPl8frwFR+Hr0xevtS/nimxDzghcQ94Y/t3n90+LX5O7rbi1Pncc2gjCO29lnN2nLPG9XMJrrZvHpyH2FsM2s/Og2HrU4v1BhN778ziYXEXLo7ze/gKrOnT5rGvBji+W95bPrSfnToqcze6drm5OHhFt8sb17cnL13sXzW0ddzj5xC/sT07x2t+tnxBpJci0kMLk71uST1Y5DZkOjdMjJZwg0LoJIn2b4nvPuUOE8O7sGjflY+WpL4EmCXSnVdV3F13K77de/25vP5ypXnR+QaYkkW6XcC2xXmzUAkXwg9tG/64i9qmgIX79Fzyjr3hRpg/PWd192V8HHJxy4eNb4P27eJjbLrxtP50992F3+K0HWPA7UC/QRvFQxYsx2+bx9s+YtNpt72udtKPKXnjjyt9jGB/T10Sro0wbsXARLxBrFbwM4LvcvzMnG/HGl735sKo/va1uMewE0Ed3ycw3I4dxmx5vGPb8foybq//KraN0cOjYV3x5eAQ37ON4BSbw779+PP97PsGcyCAeQ6chz7Y+D0bCm1OdZyR2F0B29qaxN0Tv83TkI3RA4HasnPZfbZrzXCuPLEa3L355bTxxT/s4xnDxurYG86Fxrb70fIFkV6SSB+JCZloIYzzBOtJBC10Ury3xe7srBEy9p/FTlf4bRK0BHXHEAI6SS0kHJJ4dwKmENqS1NdnXyL9xWvN6L31kkV6W4A2c9mdbxb7iEjv5l/ahRf+lDbu2HbO0vlj+B4shh2fe353nGx9cBcFX76ECq7hvI3B5sT2ftuvF1X9Q4ODZ2jMTW7ZnNzaDsY/zsGUvNnF7nQfu9j2c2HnRwVUj5HiZrHS624NG8c87Vt6nzXwa/ln6rjlpDcXfDzdvNbVY5iaG2kxrxHvEH/xz5nHJO4OuSNYjXJhkDvD9t344XFbrM18dByc62capkM8uj7r42x8SeJO38fyUXyexr3vv41xMC/+V3G9XFdejPz2za3RHqM+1i+/ja3PoVgHdj18srFqDBmOli+I9JMQ6Zao3WdJvL7A+9sEE9SQuU02fU9sVPTCtt3kSD23JPX1myXS9d0WzzH2uosI9K8+ce/oj07LFelSXDxi2ylA3mK8RqHZFLELAc5Fi/VgfInBeSgd3HN51sVq+d0tQBeHfwhr+Sp4uELeGaPjuWcBb+PzCAjpm1LAN/1VnA78dubHx/XUayl5k2prVruA//7641kAHfzbcVPwtH1W+LwWfoNaKflouObNBS+GVnCk5oabJ+HzteLdckXnTWLRtWJKtLd9NN9svBvfB230dYe+RnQ57//msRZrm/+7+LmAX6vjbHzx8mnzgDd64Nms60NOJuLuG3eAbWdnO6adt0F/35i+a8N/DdFY2zlXjg182NSXh+XbtPwP+tJ366P61HK259SQNyYu7ZPpaPmCSC9JpPvEiRYUJYSnmA8I6xCzL5Q9WfWaKxJaQtqxTYJpcmwLsvqT4WhJ6hszWaQ7r6lcvXv86kr/Wov7Lnr3DS8+gS7tixXpG25ctl+X6XDGW6BWmMOtXeHNoGh2C+2YP53IVj6mHfsi2nHCY8MIIt8fWosvoyLtYtBy3+aMCgmP6LE56trS81ibAGY+3seupeRNrP9O99q4/NgIJ9w609nfLKL2W6sUJznGsHLbrXx+EPw0hlYkWM51n3sMBTubAx4+qs2J4+rxtnXmfHPeyUHv2rL1q8vfPhf9Is278+3i5YxnOdyOb+vRbD93x1j8WR3nLX6h2tpd39Zk016uJ4n02KtpLf6+vO/msKvnvvsbLAM5PuJL267/Y+w2prvcv2vYjKcc2NSj8/f0fwcxeod95LuuI8Pc6nzpcrDn6DIuWH76Plu+INJLEemjf9oMJGBbYBwCmgT0TXrKNZeQvgRr72sirDRmyC9LUl+7bCJdvsmliX8PepkivSs03YIu506BdDgzKtxaBBMf7lpueBe9npPCFVvU9skfH1/cayMMgnwWHIeF27WzPQ8sONv7Yj/WJnYv6Nt4sUjJm4FPM2x7+22404vIoU+C8/ie4abPh5Xw8PrsG29zbTX8NrhEHzx3qqWJfIzE6GKyWrw6Xit+bL4EhHfb1u5oBtq2eGo9M6JMxvaO66yfvno1yuvA2BrbguPqOBtf/LW1i8fWYZl/ycskkT7Avc/ttr+7vqg/7TzoPEn7sA++NUK52caj65HMndjd5MvYd1NbIz4PsNjwr8vRC81l6bflieTZkJutT9v7PRbq85pHyxdEejEi3VNsRqT3v/c1IEhLUs+OTCLBJAkGZN4koL8Q5CGrJekgvo0/kyL9vR9qvup5vcV/KS7K7W57iSLdFq9BUREebeY/NL8jjAdFKzLP3qI4Ls5T/Gnva2F2jj4uDn2dEC5O7NpPxpq2KzFP2NbFqcXAihODWaxN7J6OkXBMyRvFYPHRV5uMj8I1v0j31KfNnLfzshIec2PcF35TuRD2O5GPZh5C9laPt+XEOA9szely3RVzfa7Ytq3vLh/ccydObz/9Wyq79iX6GcJt7vXVcXbibn3x1DgVyOP884n01HfSu7qua4nFwTsH3vkSHvvn39qUz269ljFUsPdtHXvteGPbkzknGOqD80w8ez96Hi+5ZvmCSC9JpEvytQVEF7Ex2Xz/fL8lRNvX00eL1Wj3YEwqb6JpfyWxLRIrf7Yk3cbnjDMp0gevubivsiw/L06ke4uKU3id+6H5HWEsxc4ubg7+XXua1MruAAAgAElEQVSnOI7udQVdF4lwkdwU/gC32qIc9WNCuDixa4xhX2w+TNjWmNuFQXPWc5TYvIvVZjyPj+rrnGNK3syxF2rb4hedky4umTud/5At7/UYVop5huNq+E3xQR5IInwPP0Am8jERm9Xi3Y7nqwfDOhDb9RYu+Lg1yFfJFc861tYJD6Y+e97XZwL/ku3l5zZeWy/8n9fH2YzT8s2s+5Ec8mHlw2mAu3cH3vWjm+cRd0O+JdSPDnvDKV+tHMRq+LaZK4l55Nt2Hod9fFjoQ0/YhovFsnPLF0R6aSJ9S5zARPtIugMRuwToyBn9Z9nNgmITdo3iFbJhSeprh0gP8MPHH4cz8WLl2JTCl1xInX6+8XXx9SyiUfHa2poSJnLfI4zdazaOUWwJNlx77fl4x9DH0+21wUIyxEtya43in5I3W38C87TmfeFatSLdci4R7+T8TLQXm88cfBH/3Z3WoeAJCLlBLF0u9ryRz64A7e4P8qUV7n6uDcfv8y7uZ98uhl/qvRw427HbeJz6GuORbdvZmsC9rV/uPIwxarEePEBt9IXJhbad4+sglocvOv/L+qb/oK2d/zGnRn60/HDq9ZWLzcWHe/8tF7o1acinzmY8/kEcA073Y6W0sXxBpJ+QSO92KfxEGhF3JomiiTXT1hRRLUl97Q8p0u3rL6HP4qPPd/fapUuXGvl1r61+XrJI3+xg+XcW/UV+iI8UbacAWy46sff9xK4/T/o28wrrZL+gSF/Pl5S8mfTT4rfgsyx+vdiagWcQqxk2dvB7NfzEfyNMUnGPiatUG6ntVovXYN2KHn2oHeCwyWe95x5dIdbOf//gPeaQtRPO5XbdGvjQcyjsZ98mFctYu1w4D8c0mLh4+ubHdz+Gu7nnbuwN5mfzwLS97xknzvFhHIOHsW0cnVDXMXxtOr2jHBqvD4O59/jY/WuL9pfj2MYQ//U4Y/mCSD8lkS4kDiVToFClEg2RPv81GUR6X7im+DMsqn1x9BXgIWeHBVsL9+Do474sJt7i3Ps8HGfh9TYvPYV+RT9scV/V/+0CmY6DLISDBTzVRgir1P47tlsNv1ANdkVpYNEfiIdB+z4ndsLUg8lq8XpsH5p7JY0Pzuk1o6R5O5Qvli+I9GMT6RUUREtSX7Kwk07h8/Ei/Vq3YzP9EJAR53bXySPcd8zxlLxJxydj3DvGl9v32vCrLd7c/AnZB+f6akmICynXLV8Q6Yj0vK9a7LAgW5L6iI1Ip/D5eFHztZS8qRmfqdhrw6+2eKfmP9d9cGatmsMtyxdEOiIdkZ7pm2CKed1lhwelOUWFtmUsQra4My/z5qU2/GqL91D5AM7z8vBQ81TKuJYviHREOiIdkV4cB0opmMfkhy3ux+R7Cb7Whl9t8R6KY+CMSJ/DPcsXRDoivTiBZknqIzivu1D4fLyo+VpK3tSMz1TsteFXW7xT85/rPjizVs3hluULIh2RfpQi/X3verC5ct+rm9DXHx76uvgmPk4l516+gpHXXSbnYWqejuG+Le7H4HNJPtaGX23xHopr4IxIn8M9yxdEOiK9OAFjSeoj+Kcee6wVwbKjXuKvCHTx0ee7ew2RTgF3+bDkPCVvltg/9b614VdbvIfiLzhT4+dwz/IFkY5InxSScwi2RltL0jVslmoDkU4BX4ubNeXNWpi5dmrDr7Z43bne5zk4U+Pn8M3yBZGOSEekH/B1EEQ6BXxOAY+1tcU91pZ7Y97Vhl9t8R6K8+A8zrVDzcUxjGv5gkhHpCPSEenFceAYimlpPtriXpp/pftTG361xXso/oEzIn0O9yxfEOmI9OIEmiXpHIIfW1t20inga3G2prxZCzPXTm341RavO9f7PAdnavwcvlm+INIR6Yh0dtKL48CcokbbbhG0xR1c5omD2vCrLd5D5QM4z8vDQ81TKeNaviDSEenFCTRL0lKSJ4cf7KRTwNfiVU15sxZmrp3a8KstXneu93kOztT4OXyzfEGkzxDpAh6/YLAmB1Skr2kTW3AUDsABOAAH4MDxcwCRPkOkz3kaou3uT89SWGrBT0V6LfES5+55MYVdTXkzhcUu92vDr7Z4d+HEGn3AOV/NW2N+SrNh+YJIR6QXJ4gtSUtLojX9QaRTwNfiU015sxZmrp3a8KstXneu93kOztT4OXyzfEGkI9IR6fzhaHEcmFPUaNstgra4g8s8cVAbfrXFe6h8AOd5eXioeSplXMsXRDoivTiBZklaSvLk8IOddAr4WryqKW/Wwsy1Uxt+tcXrzvU+z8GZGj+Hb5YviHREOiKdnfTiODCnqNG2WwRtcQeXeeKgNvxqi/dQ+QDO8/LwUPNUyriWL4h0RHpxAs2S1Jc8n3rsseZ973qwec+DZf6Kb+Kjz3f3GjvpFHCXD0vOU/Jmif1T71sbfrXFeyj+gjM1fg73LF8Q6Yj0SSE5h2BrtLUk9dkUEXzlvlc3V+9+eZG/4pv46PPdvYZIp4C7fFhynpI3S+yfet/a8Kst3kPxF5yp8XO4Z/mCSEekTwrJOQRbo60lqc+m7KCXKtDVL/HR57t7DZFOAXf5sOQ8JW+W2D/1vrXhV1u8h+IvOFPj53DP8gWRjkifFJJzCLZGW0tSn01EOoXPx4uar6XkTc34TMVeG361xTs1/7nugzNr1RxuWb4g0hHpiPRMr8ywk05xnlOcl7a1xX2pvdr614ZfbfEeis/gzDowh3uWL4h0RDoiHZFeHAfmFDXadougLe7gMk8c1IZfbfEeKh/AeV4eHmqeShnX8gWRjkgvTqBZkvqSh9ddKHw+XtR8LSVvasZnKvba8Kst3qn5z3UfnFmr5nDL8gWRjkhHpM/cSX/x2s3mS++d/laZ8l53ebK5eNe55sLDuxXNJy+db87dc7k4vpw9fKE5d9fF5knf993H7vnaD65dbi6cu9BcHlzbDbs5RXrXtra472pnP/2WcHFJ3/D87Qu/3fNoXT7uK9798Ck8r4ceH5zLnZtDc8M3vuULIr0gkX75nnPNuXMJvwGhlNI/VaCJrdS2PqItuWZJ6rOVvJP+6JWmufaQ95tgbj1xs3npUSu2H2peajw/jo2yRXpMwITvtcLBy71epPrFRWczhbfnLz3pEfhhn3zz7r0WE+KxewPxnR6H/4FABNRU7vZYeuMY+DN/YUvJmznj+uc71S+Lp409Nu+27/nm4hV33Fhft92887XwG+WSqddeXL08tXEi0ufwt5S2a/GqlHjwY15dmYuX5QsivSCRPprMKxeb8+fsArU7QULCe7SoRMTGPoS7JekIl7Oz9j8x0q86jB5ni3Qr2l/eXDU2TlGk+zA+a/nXiyuvuFgoLM/OrBBJ4bcVcWNxvH0g8Iqfbow2ntAO/OK4bBwegSW+rbhTn5I33nkOxLr7fHfzs50Dsd/G6tay0Lx7+p51D0B97Qn1tZjP+7wGfu1GieFUe80R6l5cvTy1cXo4FJi7lHleI97oOKM5l/noYho+1Lu8cObMi4lyycl5g7dvjJ47jv0WO8E0MP4CbF1csuO88bPlma7dI0z6uL3822LR4zrI3y0Ww/kbthnekzn2497ls3LA3+asCftpOdCvUYr7FBaD+xvMhn6YWJz81TFyHS1fEOkFi/SWpEGi90mXShYh5pCI822kjrWknSWpz9asnXTPxrheGu+kj0W63XFHpHt4E3igbDkcWTB0Qc3Gy9BCL/56/TLFWRc9OXrbe7DYLmjuPb/Aii5EXjuuzeF5St74cil0bWffApiLvX5R73AezXug7/CVpkDfmXjZuJfjFxJ8w+teXL1x2zj9HLJxpH5eHu+Qf8NxNY+sAB5iMeyzsdfWko1YHOWc2B2KslZwuSLq4QsOz86abrPB+qH+yTj2Xiyu+ffy4tz502LgYDXCRHJDOKb1zMWrzRuZl3MObt3nYX5uMHP6PnnpYv86YBLudpyz5vIl86pi1E+Nw52zy81F519pbewWm+k1p4vT1qp9vepp+YJIL1akb4rZw7KbPixK3sI2uUB1xBsmnSk4bnHUZF4sTswYk36eNZakvnhniXTnVRV3192Kb/defy6vv1xpXnTeWz8Gkd4XGBf/BA6482OErFdcbNv7ivrEbkjbd1P4Xb6Nzt2C7MTj42u7gBibzuLVcSmEgz8G5V8bfzAXu77bRXAUg4gBXx6LL4H4ttg6MUeupeSNxpJy7OLtd9Z8sfl4FuSJu/hu8LH1KNi3nWvFLzR/aTiFYl+O36ZmD17NEZ+G170xerBRvHuMXI4t58zyeMN4dzFe8OxSSww6j77+XYwSc2tjlLuePgNueO6fnTUi1FyuboVc23c5liFOyfWcOHfjDvnVXrNxOZ+3sbu1RPhnsLb4e3nr2vCc+3B352GE25SfJpdi/ft7Fp+JmtvmouFo65e55om3H9PPw5T7li+I9CJFuiGVjzSzCRJf2NoEDOwoxO6lkG5uG0tSX/99ifQXrzWj99aLFultMTnX/4GnfnZEY7/oTxQS6esU7niR9vPLuyBEuSvcTymG0m78L0Oj8TyLj32Np+eX3+b2fjQPU/0eYy64RheuKF69vZS82caSaNNtL9gmcceH+Zl9YPPzZbhj3sc2vB7ou0NMbnxr4Nfyz8kZsW856c0jL2Y2zt055sap52vEq7YGx62gEX+NAN7ec+Y2MG8tTgbLwTjaL8GmzIE3x9q+xke1u9IxG87qXxJ3erwtHwVTLz4DXC0Xe3veOdn4NrTr4YPG4Dn6/BzWAY8PA5/1vvV9wg8vnhN9PP7HcInds3xBpBcm0tvC5BMpLfkChSaJIJaoSuDuKAkRW4Cn7sdIN/eeJamv/yyRru+2eI6x111EoH/1iXtHf3RaskjvFrbzgX998XBgwyvdtQse77kcf0cwUOiHRXrIOd+8druOS0X6xfZbbLax2IVeirDzT7ZDPzqMtn2dhxu70zTsJ0U8xW8PBt5FwdNuIs9T8mbo87wx0mtAh+FAFEmMA8Hm4WIbn6fvEb2TLvh2Ndz5FwjDtfa+ueYXHxajBRzzcCcPX1yfPcJmVG/CArmrZeZVCE8c0+3Ej8D61voT9mFJvmjfPDj3uevl0+bd/0EObrCTPB7WP3fOervD14Q2c9n+y37P7Zhm6Gq5g3uL9YXmclsL1EYY+7Gf/YN+e09rs1vfdYwBT2xN6fjg1vhBHN56HOHQYCwHvx2vW74g0ksR6RviDpNKiDFc+NuENAVnQFgl7sRxQMrtwuJPmG5M/z0tRGseLUl9tpNFuvOaytW7x6+u9K+1uO+id9/w4hPo0r5ckd4XEuHEkEtSPALFeFBMwm38i8G44LnFb3A+ECYz+m25PMwFXQTCY2zeX3SL+IbrY2x8xXWcfz4udtfS4vGOKwuL8TE8js/P7lpK3qTYXaOeKNf6ubFzF+bZuK+tPbG+YXymYl8Lv6lxvPcHwkUFTHfsa/UcPk7jkCPeYd0Rf+3cDf2KrS3tvam8aHGLjdFxZShKHR9OVqQHdsc9/7Kj+dbzTPFx5m+D0/l7nIemKPYe3KX9Xeeb88460M2/rQ3d+G0dctpK3rT8uuu8s6Fox7Gf+4dmb+2VtW+Te338XS1322tN7NsoRusfbV4i0ksR6QOhpBO/Q1FuE8FJJLHrfbrUMZxj2264QLSL7FSh9Pru2J1535LUt6hlE+nyTS5N/HvQyxTptjg5BXaLf9cmXmjCbfwi3TPPwqM9c8bHkdC1oZAQ/7ui3AtKTw5sHxT0nn9h6ceckbup+bmdRw/me3n31T9uH/O+7oc5usSXlLqTZD9UR10OGfGRZLfl6RTv0udgtXg3vBzXB18NGvs3zseuzZRI74RTRKDrPMSwbttEbEzkXMq8rY2zHXOMu+DX5YgrNLVfi9sAk0A+udi45w4m3rkL4d6KYcvfwNjeh4nxq2NtTO14rt3OptZzwUD8jK17YwyHa8KFh8VmXp7o/Fi+INIR6Z7vru6SIUZqJVSOoyWpb4xJkf7eDzVf9bze4r8UF+V2t708kb4pSlYYjwpruCD2GIfbjAvZeMFt7ci41hensPdj9f1b266I2Zz7Fplh/wkx7HlolbGm7fa+DcdLvT7hl4vHaJFJHWPYLiVvZsfS+qYPJs4xYX7jOId5Jj56F/8tZvG+s2Pc2M2C39bnfq6S82jUdwanRn378RWfdeMdihoVSNvjQBQOfQnNdYuTl2fd/EdfPxvtjg7HVAyGr3QE2iRgubXnabsuzh4fPTVORbpvDRe87b8seOfArUvt+Vikjrgcw72954rpLhbv2HNE+tQfk7YPLGPf3TkbxTGax3Vzzx3bnlu+INIR6acp0gevubivsiw/L06ke4v0ppi7hTbL6y6eRUPG9C6unrYbn+yioYWrXVCitiaKpwebeEGOiY3xAqN+jo8TfrmLgMfHsT0fdsNrtrjvYsPt0+JkXrfb3m8X3OmFL/wwFBfaoYW7Gz/ed+uji3HC+Wr4tTnnPNB4Hj5jfA9jNoNT+4w3OJb4G+eIiklfzC3/PLnf1oSI6J8lvAPic1cO+fqtxqsQzr4Y2mv+euXDz4f1sE76c26Qpz4/Bj77+OC3Kzj6/PT+7UYk1nY+EuqrdyzH9yEWw7rrm/Ml1yxfEOlFiHQh70RRH933J+BcErfkHNmO++J7Ol9CStvXktTel8+TO+k1iXSnmPiw6q+FC2JKm1GhaotjnCvbnTTlmF10pwrs5D/xJ+SOb0x7TTDcxBPkt1eYJoyvsW+Pw9wVXH0ipZ+TtEUhJW/SbU5zRWpHEKvt37nE+RHqL7bXwCQ93hW/Kk945ONXQp7uM+51+eLj6FiUPXnpwuB/j21rSuBBsL1ncWxzNC782zUtJuLdeUiwN4dDvrb5cR4L2hiP/Ph0dazPR9/cnR9+jWxbD/ta5rc75EXbxplT7xxv5sdvr/Ozrw1dneo/m+9d99X0hy8M69aorj/ZXLx0ud+8HN0fxuSb8yXXLF8Q6UWI9BUnXQjlJEFLlpaofTItIdA++lqS+sY8pEi3r7+EPouPPt/da5cuXWrk172W73xaeOnOVl+se262BTV18XMXwuh555N/Z3Fzz/J5YE+KdoTbvnwI/fPn1II9dX/gV49bfD4lxrjoiPfvx0nJm1Rb0m5SQE3skkp/d/Ecjh3noizQ4b59zEOby66vhp/wJMrZsJ/7jHu1eIO8Hwu90d9/RHDyCrg2B/0PflqzWnG3fSB22vrGypLTw/nNj7OMt6mVGnekTvvFb79JoRsriqebY11NUEyHdTcV90E735xs+BT00/wN0ahODDjiq60GK9/60Qpzf5wuHjnOLV8Q6Yj0PQnEYeGKkduS1NcWkZ6OZ49fXBj17fy22wIdKf5T/WP3h8Vfi2OKUOt2VnRh8R59C4EUYW8sMXvDRSkWT/K9oB/+OYjZTcmbWH/vvcGC18/LaCPAI9RCc+rOkU8IiB+DhVyFhz16528+bhr3aviFMBv47+dSStwhzDSO1ONq8XrmPtWHGtqB8+45WQM/bIyWL4j0UxPpJ1AwLUktieUzIp3C5+NF+rXugWW0C7PP/Gl3a/xiLT2OngcpebOL3Vr61IZfbfEeisfg3NeoQ83BMY1r+YJIR6Szk57p/fXyXnehWB5TsZ7rqy3uc/vX3r42/GqL91D8BmfWnTncs3xBpCPSEemI9OI4MKeo0bZbBG1xB5d54qA2/GqL91D5AM7z8vBQ81TKuJYviHREenECzZLUlzy87kLh8/Gi5mspeVMzPlOx14ZfbfFOzX+u++DMWjWHW5YviHREOiKdnfTiODCnqNG2WwRtcQeXeeKgNvxqi/dQ+QDO8/LwUPNUyriWL4h0RHpxAs2S1Jc873vXg82V+17dhL7+8NDXxTfx0ee7e22/X8FIsXSxP7XzlLw5tZjXjKc2/GqLd02uzLEFzqw7S/iCSEekTwrJOQRbo21KUfvUY4+1IlheeynxVwS6+DiFByKdAj7FkdT7KXmTaqvGdrXhV1u8h+I0OFPj53DP8gWRjkifFJJzCLZGW0vSNWyWagORTgFfi5s15c1amLl2asOvtnjdud7nOThT4+fwzfIFkY5IR6Tv87uxzViIdAr4nAIea2uLe6wt98a8qw2/2uI9FOfBeZxrh5qLYxjX8gWRjkhHpBvhvM9ERqRTwNfimy3ua9mtxU5t+NUW76F4DM7U+Dncs3xBpCPSEemI9OI4MKeo0bZbBG1xB5d54qA2/GqL91D5AM7z8vBQ81TKuJYviHREenECzZK0lOTJ4Qc76RTwtXhVU96shZlrpzb8aovXnet9noMzNX4O3yxfEOmIdEQ6O+nFcWBOUaNttwja4g4u88RBbfjVFu+h8gGc5+XhoeaplHEtXxDpM0S6gMcvGKzJAd1JX9MmtuAoHIADcAAOwIHj5wAifYZIb/jZCwJSWGr5UZFeS7zEmQ+BmvImB4q14VdbvDk4k2ITnFNQoo0iYPmCSEekKzeKOVqSFuNYBkcQ6RlArdRkTXmTY4prw6+2eHNwJsUmOKegRBtFwPIFkY5IV24Uc7QkLcaxDI4g0jOAWqnJmvImxxTXhl9t8ebgTIpNcE5BiTaKgOULIh2Rrtwo5mhJWoxjGRxBpGcAtVKTNeVNjimuDb/a4s3BmRSb4JyCEm0UAcsXRDoiXblRzNGStBjHMjiCSM8AaqUma8qbHFNcG361xZuDMyk2wTkFJdooApYviHREunKjmKMlaTGOZXAEkZ4B1EpN1pQ3Oaa4NvxqizcHZ1JsgnMKSrRRBCxfEOmIdOVGMUdL0mIcy+AIIj0DqJWarClvckxxbfjVFm8OzqTYBOcUlGijCFi+INIR6cqNYo6WpMU4lsERRHoGUCs1WVPe5Jji2vCrLd4cnEmxCc4pKNFGEbB8QaQj0pUbxRwtSYtxLIMjiPQMoFZqsqa8yTHFteFXW7w5OJNiE5xTUKKNImD5gkhHpCs3ijlakhbjWAZHEOkZQK3UZE15k2OKa8OvtnhzcCbFJjinoEQbRcDyBZGOSFduFHO0JC3GsQyOINIzgFqpyZryJscU14ZfbfHm4EyKTXBOQYk2ioDlCyIdka7cKOZoSVqMYxkcQaRnALVSkzXlTY4prg2/2uLNwZkUm+CcghJtFAHLF0Q6Il25UczRkrQYxzI4gkjPAGqlJmvKmxxTXBt+tcWbgzMpNsE5BSXaKAKWL4h0RLpyo5ijJWkxjmVwBJGeAdRKTdaUNzmmuDb8aos3B2dSbIJzCkq0UQQsXxDpiHTlRjFHS9JiHMvgCCI9A6iVmqwpb3JMcW341RZvDs6k2ATnFJRoowhYviDSEenKjWKOlqTFOJbBEUR6BlArNVlT3uSY4trwqy3eHJxJsQnOKSjRRhGwfEGkI9KVG8UcLUmLcSyDI4j0DKBWarKmvMkxxbXhV1u8OTiTYhOcU1CijSJg+YJIR6QrN4o5WpIW41gGRxDpGUCt1GRNeZNjimvDr7Z4c3AmxSY4p6BEG0XA8gWRjkhXbhRztCQtxrEMjiDSM4Baqcma8ibHFNeGX23x5uBMik1wTkGJNoqA5QsiHZGu3CjmaElajGMZHEGkZwC1UpM15U2OKa4Nv9rizcGZFJvgnIISbRQByxdEOiJduVHM0ZK0GMcyOIJIzwBqpSZrypscU1wbfrXFm4MzKTbBOQUl2igCli+IdES6cqOYoyVpMY5lcASRngHUSk3WlDc5prg2/GqLNwdnUmyCcwpKtFEELF8Q6Yh05UYxR0vSYhzL4AgiPQOolZqsKW9yTHFt+NUWbw7OpNgE5xSUaKMIWL4g0hHpyo1ijpakxTiWwRFEegZQKzVZU97kmOLa8Kst3hycSbEJziko0UYRsHxBpCPSlRvFHC1Ji3EsgyOI9AygVmqyprzJMcW14VdbvDk4k2ITnFNQoo0iYPmCSEekKzeKOVqSFuNYBkcQ6RlArdRkTXmTY4prw6+2eHNwJsUmOKegRBtFwPIFkY5IV24Uc7QkLcaxDI4g0jOAWqnJmvImxxTXhl9t8ebgTIpNcE5BiTaKgOULIh2Rrtwo5mhJWoxjGRxBpGcAtVKTNeVNjimuDb/a4s3BmRSb4JyCEm0UAcsXRDoiXblRzNGStBjHMjiCSM8AaqUma8qbHFNcG361xZuDMyk2wTkFJdooApYviHREunKjmKMlaTGOZXAEkZ4B1EpN1pQ3Oaa4NvxqizcHZ1JsgnMKSrRRBCxfEOmIdOVGMUdL0mIcy+AIIj0DqJWarClvckxxbfjVFm8OzqTYBOcUlGijCFi+INIR6cqNYo6WpMU4lsERRHoGUCs1WVPe5Jji2vCrLd4cnEmxCc4pKNFGEbB8QaQj0pUbxRwtSYtxLIMjiPQMoFZqsqa8yTHFteFXW7w5OJNiE5xTUKKNImD5gkhHpCs3ijlakhbjWAZHEOkZQK3UZE15k2OKa8OvtnhzcCbFJjinoEQbRcDyBZGOSFduFHO0JC3GsQyOINIzgFqpyZryJscU14ZfbfHm4EyKTXBOQYk2ioDlCyIdka7cKOZoSVqMYxkcQaRnALVSkzXlTY4prg2/2uLNwZkUm+CcghJtFAHLF0Q6Il25UczRkrQYxzI4gkjPAGqlJmvKmxxTXBt+tcWbgzMpNsE5BSXaKAKWL4h0RLpyo5ijJWkxjmVwBJGeAdRKTdaUNzmmuDb8aos3B2dSbIJzCkq0UQQsXxDpiHTlRjFHS9JiHMvgCCI9A6iVmqwpb3JMcW341RZvDs6k2ATnFJRoowhYviDSZ4h0AY9fMFiTAyrS17SJLTgKB+AAHIADcOD4OYBInyHS9UmHY14EpLDU8qMivZZ4iTMfAjXlTQ4Ua8OvtnhzcCbFJjinoEQbRcDyBZGOSFduFHO0JC3GsQyOINIzgFqpyZryJscU14ZfbfHm4EyKTXBOQYk2ioDlCyIdka7cKOZoSVqMYxkcQaRnALVSkzXlTY4prg2/2uLNwZkUm3NoSLwAACAASURBVOCcghJtFAHLF0Q6Il25UczRkrQYxzI4gkjPAGqlJmvKmxxTXBt+tcWbgzMpNsE5BSXaKAKWL4h0RLpyo5ijJWkxjmVwBJGeAdRKTdaUNzmmuDb8aos3B2dSbIJzCkq0UQQsXxDpiHTlRjFHS9JiHMvgCCI9A6iVmqwpb3JMcW341RZvDs6k2ATnFJRoowhYviDSEenKjWKOlqTFOJbBEUR6BlArNVlT3uSY4trwqy3eHJxJsQnOKSjRRhGwfEGkI9KVG8UcLUmLcSyDI4j0DKBWarKmvMkxxbXhV1u8OTiTYhOcU1CijSJg+YJIR6QrN4o5WpIW41gGRxDpGUCt1GRNeZNjimvDr7Z4c3AmxSY4p6BEG0XA8gWRjkhXbhRztCQtxrEMjiDSM4Baqcma8ibHFNeGX23x5uBMik1wTkGJNoqA5QsiHZGu3CjmaElajGMZHEGkZwC1UpM15U2OKa4Nv9rizcGZFJvgnIISbRQByxdEOiJduVHM0ZK0GMcyOIJIzwBqpSZrypscU1wbfrXFm4MzKTbBOQUl2igCli+IdES6cqOYoyVpMY5lcASRngHUSk3WlDc5prg2/GqLNwdnUmyCcwpKtFEELF8Q6Yh05UYxR0vSYhzL4AgiPQOolZqsKW9yTHFt+NUWbw7OpNgE5xSUaKMIWL4g0hHpyo1ijpakxTiWwRFEegZQKzVZU97kmOLa8Kst3hycSbEJziko0UYRsHxBpCPSlRvFHC1Ji3EsgyOI9AygVmqyprzJMcW14VdbvDk4k2ITnFNQoo0iYPmCSEekKzeKOVqSFuNYBkcQ6RlArdRkTXmTY4prw6+2eHNwJsUmOKegRBtFwPIFkY5IV24Uc7QkLcaxDI4g0jOAWqnJmvImxxTXhl9t8ebgTIpNcE5BiTaKgOULIh2Rrtwo5mhJWoxjGRxBpGcAtVKTNeVNjimuDb/a4s3BmRSb4JyCEm0UAcsXRDoiXblRzNGStBjHMjiCSM8AaqUma8qbHFNcG361xZuDMyk2wTkFJdooApYviHREunKjmKMlaTGOZXAEkZ4B1EpN1pQ3Oaa4NvxqizcHZ1JsgnMKSv9/e2eXo8l1HFHtz4uxvRntxQvwu96sFwK2YVECJOiHoikRhtFGEUiinV+TFdWsYEd/cQYY3MEwJyvvued+HdUaUtQMge0LIZ2QPm7ErFvSmMEMgxDSDVBLWzbdG8cRt/Fr26/DGaUnnBVK1AyB7QshnZA+bsSsW9KYwQyDENINUEtbNt0bxxG38Wvbr8MZpSecFUrUDIHtCyGdkD5uxKxb0pjBDIMQ0g1QS1s23RvHEbfxa9uvwxmlJ5wVStQMge0LIZ2QPm7ErFvSmMEMgxDSDVBLWzbdG8cRt/Fr26/DGaUnnBVK1AyB7QshnZA+bsSsW9KYwQyDENINUEtbNt0bxxG38Wvbr8MZpSecFUrUDIHtCyGdkD5uxKxb0pjBDIMQ0g1QS1s23RvHEbfxa9uvwxmlJ5wVStQMge0LIZ2QPm7ErFvSmMEMgxDSDVBLWzbdG8cRt/Fr26/DGaUnnBVK1AyB7QshnZA+bsSsW9KYwQyDENINUEtbNt0bxxG38Wvbr8MZpSecFUrUDIHtCyGdkD5uxKxb0pjBDIMQ0g1QS1s23RvHEbfxa9uvwxmlJ5wVStQMge0LIZ2QPm7ErFvSmMEMgxDSDVBLWzbdG8cRt/Fr26/DGaUnnBVK1AyB7QshnZA+bsSsW9KYwQyDENINUEtbNt0bxxG38Wvbr8MZpSecFUrUDIHtCyGdkD5uxKxb0pjBDIMQ0g1QS1s23RvHEbfxa9uvwxmlJ5wVStQMge0LIZ2QPm7ErFvSmMEMgxDSDVBLWzbdG8cRt/Fr26/DGaUnnBVK1AyB7QshnZA+bsSsW9KYwQyDENINUEtbNt0bxxG38Wvbr8MZpSecFUrUDIHtCyGdkD5uxKxb0pjBDIMQ0g1QS1s23RvHEbfxa9uvwxmlJ5wVStQMge0LIZ2QPm7ErFvSmMEMgxDSDVBLWzbdG8cRt/Fr26/DGaUnnBVK1AyB7QshnZA+bsSsW9KYwQyDENINUEtbNt0bxxG38Wvbr8MZpSecFUrUDIHtCyGdkD5uxKxb0pjBDIMQ0g1QS1s23RvHEbfxa9uvwxmlJ5wVStQMge0LIf1CSD/g8RMGdzowIf3OnvTCURzAARzAARz4/A4Q0i+E9HnTYfUSOD5YWn5MSG/ZL/v0EWi6Nw6Kbfza9utwRukJZ4USNUNg+0JIJ6SPGzHrljRmMMMghHQD1NKWTffGccRt/Nr263BG6QlnhRI1Q2D7QkgnpI8bMeuWNGYwwyCEdAPU0pZN98ZxxG382vbrcEbpCWeFEjVDYPtCSCekjxsx65Y0ZjDDIIR0A9TSlk33xnHEbfza9utwRukJZ4USNUNg+0JIJ6SPGzHrljRmMMMghHQD1NKWTffGccRt/Nr263BG6QlnhRI1Q2D7QkgnpI8bMeuWNGYwwyCEdAPU0pZN98ZxxG382vbrcEbpCWeFEjVDYPtCSCekjxsx65Y0ZjDDIIR0A9TSlk33xnHEbfza9utwRukJZ4USNUNg+0JIJ6SPGzHrljRmMMMghHQD1NKWTffGccRt/Nr263BG6QlnhRI1Q2D7QkgnpI8bMeuWNGYwwyCEdAPU0pZN98ZxxG382vbrcEbpCWeFEjVDYPtCSCekjxsx65Y0ZjDDIIR0A9TSlk33xnHEbfza9utwRukJZ4USNUNg+0JIJ6SPGzHrljRmMMMghHQD1NKWTffGccRt/Nr263BG6QlnhRI1Q2D7QkgnpI8bMeuWNGYwwyCEdAPU0pZN98ZxxG382vbrcEbpCWeFEjVDYPtCSCekjxsx65Y0ZjDDIIR0A9TSlk33xnHEbfza9utwRukJZ4USNUNg+0JIJ6SPGzHrljRmMMMghHQD1NKWTffGccRt/Nr263BG6QlnhRI1Q2D7QkgnpI8bMeuWNGYwwyCEdAPU0pZN98ZxxG382vbrcEbpCWeFEjVDYPtCSCekjxsx65Y0ZjDDIIR0A9TSlk33xnHEbfza9utwRukJZ4USNUNg+0JIJ6SPGzHrljRmMMMghHQD1NKWTffGccRt/Nr263BG6QlnhRI1Q2D7QkgnpI8bMeuWNGYwwyCEdAPU0pZN98ZxxG382vbrcEbpCWeFEjVDYPtCSCekjxsx65Y0ZjDDIIR0A9TSlk33xnHEbfza9utwRukJZ4USNUNg+0JIJ6SPGzHrljRmMMMghHQD1NKWTffGccRt/Nr263BG6QlnhRI1Q2D7QkgnpI8bMeuWNGYwwyCEdAPU0pZN98ZxxG382vbrcEbpCWeFEjVDYPtCSCekjxsx65Y0ZjDDIIR0A9TSlk33xnHEbfza9utwRukJZ4USNUNg+0JIJ6SPGzHrljRmMMMghHQD1NKWTffGccRt/Nr263BG6QlnhRI1Q2D7QkgnpI8bMeuWNGYwwyCEdAPU0pZN98ZxxG382vbrcEbpCWeFEjVDYPtCSCekjxsx65Y0ZjDDIIR0A9TSlk33xnHEbfza9utwRukJZ4USNUNg+0JIJ6SPGzHrljRmMMMghHQD1NKWTffGccRt/Nr263BG6QlnhRI1Q2D7QkgnpI8bMeuWNGYwwyCEdAPU0pZN98ZxxG382vbrcEbpCWeFEjVDYPtCSCekjxsx65Y0ZjDDIIR0A9TSlk33xnHEbfza9utwRukJZ4USNUNg+0JIJ6SPGzHrljRmMMMghHQD1NKWTffGccRt/Nr263BG6QlnhRI1Q2D7QkgnpI8bMeuWNGYwwyCEdAPU0pZN98ZxxG382vbrcEbpCWeFEjVDYPtCSCekjxsx65Y0ZjDDIIR0A9TSlk33xnHEbfza9utwRukJZ4USNUNg+0JIJ6SPGzHrljRmMMMghHQD1NKWTffGccRt/Nr263BG6QlnhRI1Q2D7QkgnpI8bMeuWNGYwwyCEdAPU0pZN98ZxxG382vbrcEbpCWeFEjVDYPtCSCekjxsx65Y0ZjDDIIR0A9TSlk33xnHEbfza9utwRukJZ4USNUNg+0JIJ6SPGzHrljRmMMMghHQD1NKWTffGccRt/Nr263BG6QlnhRI1Q2D7QkgnpI8bMeuWNGYwwyCEdAPU0pZN98ZxxG382vbrcEbpCWeFEjVDYPtCSCekjxsx65Y0ZjDDIIR0A9TSlk33xnHEbfza9utwRukJZ4USNUNg+0JIJ6SPGzHrljRmMMMghHQD1NKWTffGccRt/Nr263BG6QlnhRI1Q2D7QkgnpI8bMeuWNGYwwyCEdAPU0pZN98ZxxG382vbrcEbpCWeFEjVDYPtCSL8Q0g94/ITBnQ5MSL+zJ71wFAdwAAdwAAc+vwOE9Ashfd50WL0Ejg+Wlh8T0lv2yz59BJrujYNiG7+2/TqcUXrCWaFEzRDYvhDSCenjRsy6JY0ZzDAIId0AtbRl071xHHEbv7b9OpxResJZoUTNENi+ENIJ6eNGzLoljRnMMAgh3QC1tGXTvXEccRu/tv06nFF6wlmhRM0Q2L4Q0gnp40bMuiWNGcwwCCHdALW0ZdO9cRxxG7+2/TqcUXrCWaFEzRDYvhDSCenjRsy6JY0ZzDAIId0AtbRl071xHHEbv7b9OpxResJZoUTNENi+ENIJ6eNGzLoljRnMMAgh3QC1tGXTvXEccRu/tv06nFF6wlmhRM0Q2L4Q0gnp40bMuiWNGcwwCCHdALW0ZdO9cRxxG7+2/TqcUXrCWaFEzRDYvhDSCenjRsy6JY0ZzDAIId0AtbRl071xHHEbv7b9OpxResJZoUTNENi+ENIJ6eNGzLoljRnMMAgh3QC1tGXTvXEccRu/tv06nFF6wlmhRM0Q2L4Q0gnp40bMuiWNGcwwCCHdALW0ZdO9cRxxG7+2/TqcUXrCWaFEzRDYvhDSCenjRsy6JY0ZzDAIId0AtbRl071xHHEbv7b9OpxResJZoUTNENi+ENIJ6eNGzLoljRnMMAgh3QC1tGXTvXEccRu/tv06nFF6wlmhRM0Q2L4Q0gnp40bMuiWNGcwwCCHdALW0ZdO9cRxxG7+2/TqcUXrCWaFEzRDYvhDSCenjRsy6JY0ZzDAIId0AtbRl071xHHEbv7b9OpxResJZoUTNENi+ENIJ6eNGzLoljRnMMAgh3QC1tGXTvXEccRu/tv06nFF6wlmhRM0Q2L4Q0gnp40bMuiWNGcwwCCHdALW0ZdO9cRxxG7+2/TqcUXrCWaFEzRDYvhDSCenjRsy6JY0ZzDAIId0AtbRl071xHHEbv7b9OpxResJZoUTNENi+ENIJ6eNGzLoljRnMMAgh3QC1tGXTvXEccRu/tv06nFF6wlmhRM0Q2L4Q0gnp40bMuiWNGcwwCCHdALW0ZdO9cRxxG7+2/TqcUXrCWaFEzRDYvhDSCenjRsy6JY0ZzDAIId0AtbRl071xHHEbv7b9OpxResJZoUTNENi+ENIJ6eNGzLoljRnMMAgh3QC1tGXTvXEccRu/tv06nFF6wlmhRM0Q2L4Q0gnp40bMuiWNGcwwCCHdALW0ZdO9cRxxG7+2/TqcUXrCWaFEzRDYvhDSCenjRsy6JY0ZzDAIId0AtbRl071xHHEbv7b9OpxResJZoUTNENi+ENIJ6eNGzLoljRnMMAgh3QC1tGXTvXEccRu/tv06nFF6wlmhRM0Q2L4Q0gnp40bMuiWNGcwwCCHdALW0ZdO9cRxxG7+2/TqcUXrCWaFEzRDYvhDSCenjRsy6JY0ZzDAIId0AtbRl071xHHEbv7b9OpxResJZoUTNENi+ENIJ6eNGzLoljRnMMAgh3QC1tGXTvXEccRu/tv06nFF6wlmhRM0Q2L4Q0gnp40bMuiWNGcwwCCHdALW0ZdO9cRxxG7+2/TqcUXrCWaFEzRDYvhDSCenjRsy6JY0ZzDAIId0AtbRl071xHHEbv7b9OpxResJZoUTNENi+ENIJ6eNGzLoljRnMMAgh3QC1tGXTvXEccRu/tv06nFF6wlmhRM0Q2L4Q0gnp40bMuiWNGcwwCCHdALW0ZdO9cRxxG7+2/TqcUXrCWaFEzRDYvhDSCenjRsy6JY0ZzDAIId0AtbRl071xHHEbv7b9OpxResJZoUTNENi+ENIJ6eNGzLoljRnMMAgh3QC1tGXTvXEccRu/tv06nFF6wlmhRM0Q2L4Q0gnp40bMuiWNGcwwCCHdALW0ZdO9cRxxG7+2/TqcUXrCWaFEzRDYvhDSCenjRsy6JY0ZzDAIId0AtbRl071xHHEbv7b9OpxResJZoUTNENi+ENIJ6eNGzLoljRnMMAgh3QC1tGXTvXEccRu/tv06nFF6wlmhRM0Q2L4Q0gnp40bMuiWNGcwwCCHdALW0ZdO9cRxxG7+2/TqcUXrCWaFEzRDYvhDSCenjRsy6JY0ZzDAIId0AtbRl071xHHEbv7b9OpxResJZoUTNENi+ENIJ6eNGzLoljRnMMAgh3QC1tGXTvXEccRu/tv06nFF6wlmhRM0Q2L4Q0i+E9AMeP2FwpwMT0u/sSS8cxQEcwAEcwIHP7wAh/UJInzcdVi+B44Ol5ceE9Jb9sk8fgaZ746DYxq9tvw5nlJ5wVihRMwS2L4R0Qvq4EbNuSWMGMwxCSDdALW3ZdG8cR9zGr22/DmeUnnBWKFEzBLYvhHRC+rgRs25JYwYzDEJIN0Atbdl0bxxH3Mavbb8OZ5SecFYoUTMEti+EdEL6uBGzbkljBjMMQkg3QC1t2XRvHEfcxq9tvw5nlJ5wVihRMwS2L4R0Qvq4EbNuSWMGMwxCSDdALW3ZdG8cR9zGr22/DmeUnnBWKFEzBLYvhHRC+rgRs25JYwYzDEJIN0Atbdl0bxxH3Mavbb8OZ5SecFYoUTMEti+EdEL6uBGzbkljBjMMQkg3QC1t2XRvHEfcxq9tvw5nlJ5wVihRMwS2L4R0Qvq4EbNuSWMGMwxCSDdALW3ZdG8cR9zGr22/DmeUnnBWKFEzBLYvhHRC+rgRs25JYwYzDEJIN0Atbdl0bxxH3Mavbb8OZ5SecFYoUTMEti+EdEL6uBGzbkljBjMMQkg3QC1t2XRvHEfcxq9tvw5nlJ5wVihRMwS2L4R0Qvq4EbNuSWMGMwxCSDdALW3ZdG8cR9zGr22/DmeUnnBWKFEzBLYvhHRC+rgRs25JYwYzDEJIN0Atbdl0bxxH3Mavbb8OZ5SecFYoUTMEti+EdEL6uBGzbkljBjMMQkg3QC1t2XRvHEfcxq9tvw5nlJ5wVihRMwS2L4R0Qvq4EbNuSWMGMwxCSDdALW3ZdG8cR9zGr22/DmeUnnBWKFEzBLYvhHRC+rgRs25JYwYzDEJIN0Atbdl0bxxH3Mavbb8OZ5SecFYoUTMEti+EdEL6uBGzbkljBjMMQkg3QC1t2XRvHEfcxq9tvw5nlJ5wVihRMwS2L4R0Qvq4EbNuSWMGMwxCSDdALW3ZdG8cR9zGr22/DmeUnnBWKFEzBLYvhHRC+rgRs25JYwYzDEJIN0Atbdl0bxxH3Mavbb8OZ5SecFYoUTMEti+EdEL6uBGzbkljBjMMQkg3QC1t2XRvHEfcxq9tvw5nlJ5wVihRMwS2L4R0Qvq4EbNuSWMGMwxCSDdALW3ZdG8cR9zGr22/DmeUnnBWKFEzBLYvhHRC+rgRs25JYwYzDEJIN0Atbdl0bxxH3Mavbb8OZ5SecFYoUTMEti+EdEL6uBGzbkljBjMMQkg3QC1t2XRvHEfcxq9tvw5nlJ5wVihRMwS2L4R0Qvq4EbNuSWMGMwxCSDdALW3ZdG8cR9zGr22/DmeUnnBWKFEzBLYvhHRC+rgRs25JYwYzDEJIN0Atbdl0bxxH3Mavbb8OZ5SecFYoUTMEti+EdEL6uBGzbkljBjMMQkg3QC1t2XRvHEfcxq9tvw5nlJ5wVihRMwS2L4R0Qvq4EbNuSWMGMwxCSDdALW3ZdG8cR9zGr22/DmeUnnBWKFEzBLYvhHRC+rgRs25JYwYzDEJIN0Atbdl0bxxH3Mavbb8OZ5SecFYoUTMEti+EdEL6uBGzbkljBjMMQkg3QC1t2XRvHEfcxq9tvw5nlJ5wVihRMwS2L4R0Qvq4EbNuSWMGMwxCSDdALW3ZdG8cR9zGr22/DmeUnnBWKFEzBLYvhHRC+rgRs25JYwYzDEJIN0Atbdl0bxxH3Mavbb8OZ5SecFYoUTMEti+EdEL6uBGzbkljBjMMQkg3QC1t2XRvHEfcxq9tvw5nlJ5wVihRMwS2L4R0Qvq4EbNuSWMGMwxCSDdALW3ZdG8cR9zGr22/DmeUnnBWKFEzBLYvhHRC+rgRs25JYwYzDEJIN0Atbdl0bxxH3Mavbb8OZ5SecFYoUTMEti+EdEL6uBGzbkljBjMMQkg3QC1t2XRvHEfcxq9tvw5nlJ5wVihRMwS2L4R0Qvq4EbNuSWMGMwxCSDdALW3ZdG8cR9zGr22/DmeUnnBWKFEzBLYvhHRC+rgRs25JYwYzDEJIN0Atbdl0bxxH3Mavbb8OZ5SecFYoUTMEti+EdEL6uBGzbkljBjMMQkg3QC1t2XRvHEfcxq9tvw5nlJ5wVihRMwS2L4R0Qvq4EbNuSWMGMwxCSDdALW3ZdG8cR9zGr22/DmeUnnBWKFEzBLYvhHRC+rgRs25JYwYzDEJIN0Atbdl0bxxH3Mavbb8OZ5SecFYoUTMEti+E9Ash/YDHTxjc6cCE9Dt70gtHcQAHcAAHcODzO0BIvxDS502H1Uvg+GBp+TEhvWW/7NNHoOneOCi28Wvbr8MZpSecFUrUDIHtCyGdkD5uxKxb0pjBDIMQ0g1QS1s23RvHEbfxa9uvwxmlJ5wVStQMge0LIZ2QPm7ErFvSmMEMgxDSDVBLWzbdG8cRt/Fr26/DGaUnnBVK1AyB7QshnZA+bsSsW9KYwQyDENINUEtbNt0bxxG38Wvbr8MZpSecFUrUDIHtCyGdkD5uxKxb0pjBDIMQ0g1QS1s23RvHEbfxa9uvwxmlJ5wVStQMge0LIZ2QPm7ErFvSmMEMgxDSDVBLWzbdG8cRt/Fr26/DGaUnnBVK1AyB7QshnZA+bsSsW9KYwQyDENINUEtbNt0bxxG38Wvbr8MZpSecFUrUDIHtCyGdkD5uxKxb0pjBDIMQ0g1QS1s23RvHEbfxa9uvwxmlJ5wVStQMge0LIZ2QPm7ErFvSmMEMgxDSDVBLWzbdG8cRt/Fr26/DGaUnnBVK1AyB7QshnZA+bsSsW9KYwQyDENINUEtbNt0bxxG38Wvbr8MZpSecFUrUDIHtCyGdkD5uxKxb0pjBDIMQ0g1QS1s23RvHEbfxa9uvwxmlJ5wVStQMge0LIZ2QPm7ErFvSmMEMgxDSDVBLWzbdG8cRt/Fr26/DGaUnnBVK1AyB7QshnZA+bsSsW9KYwQyDENINUEtbNt0bxxG38Wvbr8MZpSecFUrUDIHtCyGdkD5uxKxb0pjBDIMQ0g1QS1s23RvHEbfxa9uvwxmlJ5wVStQMge0LIZ2QPm7ErFvSmMEMgxDSDVBLWzbdG8cRt/Fr26/DGaUnnBVK1AyB7QshnZA+bsSsW9KYwQyDENINUEtbNt0bxxG38Wvbr8MZpSecFUrUDIHtCyGdkD5uxKxb0pjBDIMQ0g1QS1s23RvHEbfxa9uvwxmlJ5wVStQMge0LIZ2QPm7ErFvSmMEMgxDSDVBLWzbdG8cRt/Fr26/DGaUnnBVK1AyB7QshnZA+bsSsW9KYwQyDENINUEtbNt0bxxG38Wvbr8MZpSecFUrUDIHtCyGdkD5uxKxb0pjBDIMQ0g1QS1s23RvHEbfxa9uvwxmlJ5wVStQMge0LIZ2QPm7ErFvSmMEMgxDSDVBLWzbdG8cRt/Fr26/DGaUnnBVK1AyB7QshnZA+bsSsW9KYwQyDENINUEtbNt0bxxG38Wvbr8MZpSecFUrUDIHtCyGdkD5uxKxb0pjBDIMQ0g1QS1s23RvHEbfxa9uvwxmlJ5wVStQMge0LIZ2QPm7ErFvSmMEMgxDSDVBLWzbdG8cRt/Fr26/DGaUnnBVK1AyB7QshnZA+bsSsW9KYwQyDENINUEtbNt0bxxG38Wvbr8MZpSecFUrUDIHtCyGdkD5uxKxb0pjBDIMQ0g1QS1s23RvHEbfxa9uvwxmlJ5wVStQMge0LIZ2QPm7ErFvSmMEMgxDSDVBLWzbdG8cRt/Fr26/DGaUnnBVK1AyB7QshnZA+bsSsW9KYwQyDENINUEtbNt0bxxG38Wvbr8MZpSecFUrUDIHtCyGdkD5uxKxb0pjBDIMQ0g1QS1s23RvHEbfxa9uvwxmlJ5wVStQMge0LIZ2QPm7ErFvSmMEMgxDSDVBLWzbdG8cRt/Fr26/DGaUnnBVK1AyB7QshnZA+bsSsW9KYwQyDENINUEtbNt0bxxG38Wvbr8MZpSecFUrUDIHtCyGdkD5uxKxb0pjBDIMQ0g1QS1s23RvHEbfxa9uvwxmlJ5wVStQMge0LIZ2QPm7ErFvSmMEMgxDSDVBLWzbdG8cRt/Fr26/DGaUnnBVK1AyB7QshnZA+bsSsW9KYwQyDENINUEtbNt0bxxG38Wvbr8MZpSecFUrUDIHtCyGdkD5uxKxb0pjBDIMQ0g1QS1s23RvHEbfxa9uvwxmlJ5wVStQMge0LIZ2QPm7ErFvSmMEMgxDSDVBLWzbdG8cRt/Fr26/DGaUnnBVK1AyB7QshnZA+bsSsW9KYwQyDENINUEtbNt0bxxG38Wvbr8MZpSecFUrUDIHtCyGdkD5uxKxb0pjBDIMQ0g1QS1s23RvHEbfxa9uvwxmlJ5wVStQMge0LIZ2QPm7ErFvSmMEMgxDSDVBLWzbdG8cRt/Fr26/DGaUnnBVK1AyB7Qsh/UJIP+DxEwZ3OjAh/c6e9MJRHMABHMABHPj8DhDSL4T0edNh9RI4T0pmZgAAFX9JREFUPlhafkxIb9kv+/QRaLo3Dopt/Nr263BG6QlnhRI1Q2D7QkgnpI8bMeuWNGYwwyCEdAPU0pZN98ZxxG382vbrcEbpCWeFEjVDYPtCSCekjxsx65Y0ZjDDIIR0A9TSlk33xnHEbfza9utwRukJZ4USNUNg+0JIJ6SPGzHrljRmMMMghHQD1NKWTffGccRt/Nr263BG6QlnhRI1Q2D7QkgnpI8bMeuWNGYwwyCEdAPU0pZN98ZxxG382vbrcEbpCWeFEjVDYPtCSCekjxsx65Y0ZjDDIIR0A9TSlk33xnHEbfza9utwRukJZ4USNUNg+0JIJ6SPGzHrljRmMMMghHQD1NKWTffGccRt/Nr263BG6QlnhRI1Q2D7QkgnpI8bMeuWNGYwwyCEdAPU0pZN98ZxxG382vbrcEbpCWeFEjVDYPtCSCekjxsx65Y0ZjDDIIR0A9TSlk33xnHEbfza9utwRukJZ4USNUNg+0JIJ6SPGzHrljRmMMMghHQD1NKWTffGccRt/Nr263BG6QlnhRI1Q2D7QkgnpI8bMeuWNGYwwyCEdAPU0pZN98ZxxG382vbrcEbpCWeFEjVDYPtCSCekjxsx65Y0ZjDDIIR0A9TSlk33xnHEbfza9utwRukJZ4USNUNg+0JIJ6SPGzHrljRmMMMghHQD1NKWTffGccRt/Nr263BG6QlnhRI1Q2D7QkgnpI8bMeuWNGYwwyCEdAPU0pZN98ZxxG382vbrcEbpCWeFEjVDYPtCSCekjxsx65Y0ZjDDIIR0A9TSlk33xnHEbfza9utwRukJZ4USNUNg+0JIJ6SPGzHrljRmMMMghHQD1NKWTffGccRt/Nr263BG6QlnhRI1Q2D7QkgnpI8bMeuWNGYwwyCEdAPU0pZN98ZxxG382vbrcEbpCWeFEjVDYPtCSCekjxsx65Y0ZjDDIIR0A9TSlk33xnHEbfza9utwRukJZ4USNUNg+0JIJ6SPGzHrljRmMMMghHQD1NKWTffGccRt/Nr263BG6QlnhRI1Q2D7QkgnpI8bMeuWNGYwwyCEdAPU0pZN98ZxxG382vbrcEbpCWeFEjVDYPtCSCekjxsx65Y0ZjDDIIR0A9TSlk33xnHEbfza9utwRukJZ4USNUNg+0JIJ6SPGzHrljRmMMMghHQD1NKWTffGccRt/Nr263BG6QlnhRI1Q2D7QkgnpI8bMeuWNGYwwyCEdAPU0pZN98ZxxG382vbrcEbpCWeFEjVDYPtCSCekjxsx65Y0ZjDDIIR0A9TSlk33xnHEbfza9utwRukJZ4USNUNg+0JIJ6SPGzHrljRmMMMghHQD1NKWTffGccRt/Nr263BG6QlnhRI1Q2D7QkgnpI8bMeuWNGYwwyCEdAPU0pZN98ZxxG382vbrcEbpCWeFEjVDYPtCSCekjxsx65Y0ZjDDIIR0A9TSlk33xnHEbfza9utwRukJZ4USNUNg+0JIJ6SPGzHrljRmMMMghHQD1NKWTffGccRt/Nr263BG6QlnhRI1Q2D7QkgnpI8bMeuWNGYwwyCEdAPU0pZN98ZxxG382vbrcEbpCWeFEjVDYPtCSCekjxsx65Y0ZjDDIIR0A9TSlk33xnHEbfza9utwRukJZ4USNUNg+0JIJ6SPGzHrljRmMMMghHQD1NKWTffGccRt/Nr263BG6QlnhRI1Q2D7QkgnpI8bMeuWNGYwwyCEdAPU0pZN98ZxxG382vbrcEbpCWeFEjVDYPtCSCekjxsx65Y0ZjDDIIR0A9TSlk33xnHEbfza9utwRukJZ4USNUNg+0JIJ6SPGzHrljRmMMMghHQD1NKWTffGccRt/Nr263BG6QlnhRI1Q2D7QkgnpI8bMeuWNGYwwyCEdAPU0pZN98ZxxG382vbrcEbpCWeFEjVDYPtCSCekjxsx65Y0ZjDDIIR0A9TSlk33xnHEbfza9utwRukJZ4USNUNg+0JIJ6SPGzHrljRmMMMghHQD1NKWTffGccRt/Nr263BG6QlnhRI1Q2D7Qki/ENIPePyEAQ7gAA7gAA7gAA7ggNsBQvrFkP7tt9++8BMGdzpwXHJ+QAACEIAABCAAgSFwZANCOiGdl44PfvEipM9HEisEIAABCEAAAgcBQvqFgH68zRzA7vwOKr34jvzhACGdD2QIQAACEIAABF4TIKQT0nnp+ODvohPSX38k8WsIQAACEIAABA4ChHRCOiE9NKR/8cUXL/yEAQ7gAA7gAA78uAPPGukJ6YR0QjohnZcBXohwAAdwAAc+rQOE9G/e/BdM7+Dyi5ff/erl+PnVN3+7o99pj5/yb8oebzX8PXL+HvndDhxe7R985+THv3MCH/jgAA7gAA4cDjzrD76TznfSeengO+mf9rsnfIHmCzQO4AAO4AAhne+kf/c/JfCddL6Lfvd30X/oXxzlCw9feHAAB3AAB3Dg3AFCOiGdkB7wHWdHQE7oyV93Of8Q5gsVjHAAB3AAB95ygJBOSCekE9JtfzWIkM4Xnre+8PB7eIEDOIAD5w4Q0gnphHRCOiGd//oBf38fB3AAB3AgzAFCOiGdkE5IJ6SHfTDzHabz7zDBCEY4gAPP7gAhnZBOSCek/6wh/Vk/dNgXBCAAAQhAAALnBPhPMPKfYLQFz4R/IfOzzPDW30k/v75UQAACEIAABCDwrAQI6YR0QnrA/0JASH/Wj1j2BQEIQAACEHgfAUI6IZ2QTkh/36cHfwoCEIAABCAAARsBQvo7QvoBjZ8wwAEcwAEcwAEcwAEccDrwzcWc+rr+jreHX7z87lcvx8+vvvnbHf1Oe7zeAL9++98IhgtccAAHcAAHcAAHcODzOnAaiIUCQvpPeEvi8nzey8PZcXY4gAM4gAM4gAMuB4QMflpCSCekf/eft3RJSl8+AHEAB3AAB3AAB9ocOE3gQgEhnZBOSMcBHMABHMABHMABHLjRASGDn5YQ0m88kLa3RPbLd0ZwAAdwAAdwAAdw4NGB0wQuFBDSCem8OeMADuAADuAADuAADtzogJDBT0sI6TceCG+Sj2+SMIEJDuAADuAADuBAmwOnCVwoIKQT0nlzxgEcwAEcwAEcwAEcuNEBIYOflhDSbzyQtrdE9st3RnAAB3AAB3AAB3Dg0YHTBC4UENIJ6bw54wAO4AAO4AAO4AAO3OiAkMFPSwjpNx4Ib5KPb5IwgQkO4AAO4AAO4ECbA6cJXCggpBPSeXPGARzAARzAARzAARy40QEhg5+WENJvPJC2t0T2y3dGcAAHcAAHcAAHcODRgdMELhQQ0gnpvDnjAA7gAA7gAA7gAA7c6ICQwU9LCOk3Hghvko9vkjCBCQ7gAA7gAA7gQJsDpwlcKCCkE9J5c8YBHMABHMABHMABHLjRASGDn5YQ0m88kLa3RPbLd0ZwAAdwAAdwAAdw4NGB0wQuFBDSCem8OeMADuAADuAADuAADtzogJDBT0sI6TceCG+Sj2+SMIEJDuAADuAADuBAmwOnCVwoIKQT0nlzxgEcwAEcwAEcwAEcuNEBIYOflhDSbzyQtrdE9st3RlwOfPHFFy8tP1WG//DLL18+4qc6X8t5HftUmVDHZyQO9DpwmsCFAkI6IZ0vODgQ58BHBKH0Z35EQD+eqYaMdH7qPs7qPmKfZzPxz3uDIGefe/ZCBj8tIaQT0OQvwnwY5H4YPNvZfEQQSn8mIf3x/qWf2bPdS/bz6CBMYPJDDpwmcKGAkE5IJ6TjQJwDLeHryj4J6Y9h4Aq/H/pCevX3P+KZV2ek/tEVmMDk53ZAyOCnJYR0AlpcQPu5LxLPy/vw/ogglP5MQvqjp+lnxmfL45nBBCYtDpwmcKGAkE5IJ6TjQJwDLeHryj4J6Y/h5gq/u4LBRzzzrtnp8+gQTGDickDI4KclhHQCWlxAc10Y+n6eD+OPCELpzySkP/qbfmZ85jyeGUxg0uLAaQIXCgjphHRCOg7EOdASvq7sk5D+GG6u8LsrGHzEM++anT6PDsEEJi4HhAx+WkJIJ6DFBTTXhaHv5/kw/ogglP5MQvqjv+lnxmfO45nBBCYtDpwmcKGAkE5IJ6TjQJwD7w1ff/nLX15+//vf/7/9vPV7b32ReO8zp5f6nKk/1ivPfLaQfpzTwew1j6u/Vvm99aw//OEPL3/6058uP1995tW9UE94xYHnckDI4KclhHQC2uUvUnyQPNcHSeJ5vicIHYHvyy+/fPnqq6++d/qt3/uh/b7nmdPrynPmzxzrlWc+W0gfZn/+85+/P6/XbJRfq/zmWcc6ff/6179+58vVoK4+c57DyuclDnQ6cJrAhQJCOiH9+y9afJB0fpAknvvVIDQh7HVAP369Q/uP7fXqM6fX1efMnzvWK898d0j/129fvn75n5d/+eWXL+/p8XreH/v1lb1Mn2H33qB+5ZlvPes9Qf3KM2efrHy24kCfA0IGPy0hpBPSCek4EOfAlSB0R0A/voBeeeZ8wZ3gd6zze1fWK8+8HrD/++U/jy8Bf//f2JB+sHpPUB7GV/gdf2bO6/VLwfH83/72ty9//OMfpTO8+syZlbUvpHHm3Wd+msCFAkI6AU36wsSHTfeHzc99/moQeiugv/V7yvzqM6fXe58zf/5Yrzzzekif75wfYT3zO+nD4uuvv/7uf/VQg/L8uSv85s+89VJwJai/55nzbFY+R3GgxwEhg5+WENIJ6YR0HIhzQA1C853RIzDPF7+3fm/+2Y+t6jOnx3ufM3/+WK8889lD+pXvZg/DK/zmzxDSe0LSnDkrZ/4RDpwmcKGAkE5A+z7cfITEPJMPz7ccuBK+3grLb/3eW895/XtXnjl/7j3PmT97rFee+awh/a3Q/JrRj/36Cr+jz5wXf92Fz50f84p/hh93OCBk8NMSQjohnZCOA3EOvDd8/ZTvqF995nyIT/B7/ez5Z2frlWc+Y0gfdq9D8xmz1//8Cr+3njV/zebKf+HlyjNfz8qvCX440OXAaQIXCgjpBLS4gMYHWdcH2Vvn/Z4gNH9H/HVYfuv33nre8Xvveeb0uvKc+TNXn/lsIX2YvTegX+E3zzrW4f/e7+D/FE/m2ax8xuHA8zsgZPDTEkI6If37L1p8aDz/h8ZnOeP3BqEjhPF/ZjT/wuismf/i6Fv/B0NX/VQ9eetZ/J8Z8Xl31TfqceaKA6cJXCggpBPSCek4EOeAGr6ufGCe1aY/89m+k352Hso/Tz8zZQ/UEPxw4DkdEDL4aQkhnYAWF9D4wHrOD6wr59oSvq7s8/0hfb6j/r5VPbcre1F7ntW1PPOMA/+cz0wcyHPgNIELBYR0QjohHQfiHGgJX1f2SUh//CJ8hd9dIeYjnnnX7PR5dAgmMHE5IGTw0xJCOgEtLqC5Lgx9P8+H8UcEofRnEtIf/U0/Mz5zHs8MJjBpceA0gQsFhHRCOiEdB+IcaAlfV/ZJSH8MN1f43RUMPuKZd81On0eHYAITlwNCBj8tIaQT0OICmuvC0PfzfBh/RBBKfyYh/dHf9DPjM+fxzGACkxYHThO4UEBIJ6QT0nEgzoGW8HVln4T0x3Bzhd9dweAjnnnX7PR5dAgmMHE5IGTw0xJCOgEtLqC5Lgx9P8+H8UcEofRnEtIf/U0/Mz5zHs8MJjBpceA0gQsFhHRCOiEdB+IcOMJXy0/1C9ZnCOmcGQFM9Zk6XHl2B4QMflpCSCegxQW0Z7+47I8vTjiAAziAAzjw3A6cJnChgJBOSCek4wAO4AAO4AAO4AAO3OiAkMFPSwjpNx4Ib8XP/VbM+XK+OIADOIADOIADigOnCVwoIKQT0nlzxgEcwAEcwAEcwAEcuNEBIYOflhDSbzwQ5c2KGt7AcQAHcAAHcAAHcOC5HThN4EIBIZ2QzpszDuAADuAADuAADuDAjQ4IGfy0hJB+44HwVvzcb8WcL+eLAziAAziAAzigOHCawIUCQjohnTdnHMABHMABHMABHMCBGx0QMvhpCSH9xgNR3qyo4Q0cB3AAB3AAB3AAB57bgdMELhQQ0gnpvDnjAA7gAA7gAA7gAA7c6ICQwU9LCOk3Hghvxc/9Vsz5cr44gAM4gAM4gAOKA6cJXCggpBPSeXPGARzAARzAARzAARy40QEhg5+WENJvPBDlzYoa3sBxAAdwAAdwAAdw4LkdOE3gQgEhnZDOmzMO4AAO4AAO4AAO4MCNDggZ/LSEkH7jgfBW/NxvxZwv54sDOIADOIADOKA4cJrAhQJCOiGdN2ccwAEcwAEcwAEcwIEbHRAy+GkJIf3GA1HerKjhDRwHcAAHcAAHcAAHntuB0wQuFBDSCem8OeMADuAADuAADuAADtzogJDBT0sI6TceCG/Fz/1WzPlyvjiAAziAAziAA4oDpwlcKCCkE9J5c8YBHMABHMABHMABHLjRASGDn5YQ0m88EOXNihrewHEAB3AAB3AAB3DguR04TeBCASGdkM6bMw7gAA7gAA7gAA7gwI0OCBn8tISQfuOB8Fb83G/FnC/niwM4gAM4gAM4oDhwmsCFAkI6IZ03ZxzAARzAARzAARzAgRsdEDL4aQkh/cYDUd6sqOENHAdwAAdwAAdwAAee24HTBC4UENIJ6bw54wAO4AAO4AAO4AAO3OiAkMFPSwjpNx4Ib8XP/VbM+XK+OIADOIADOIADigOnCVwo+NlDujATJRCAAAQgAAEIQAACEKgmQEivPn42DwEIQAACEIAABCCQSICQnngqzAQBCEAAAhCAAAQgUE2AkF59/GweAhCAAAQgAAEIQCCRACE98VSYCQIQgAAEIAABCECgmgAhvfr42TwEIAABCEAAAhCAQCIBQnriqTATBCAAAQhAAAIQgEA1AUJ69fGzeQhAAAIQgAAEIACBRAKE9MRTYSYIQAACEIAABCAAgWoChPTq42fzEIAABCAAAQhAAAKJBAjpiafCTBCAAAQgAAEIQAAC1QQI6dXHz+YhAAEIQAACEIAABBIJENITT4WZIAABCEAAAhCAAASqCRDSq4+fzUMAAhCAAAQgAAEIJBIgpCeeCjNBAAIQgAAEIAABCFQTIKRXHz+bhwAEIAABCEAAAhBIJEBITzwVZoIABCAAAQhAAAIQqCZASK8+fjYPAQhAAAIQgAAEIJBIgJCeeCrMBAEIQAACEIAABCBQTYCQXn38bB4CEIAABCAAAQhAIJEAIT3xVJgJAhCAAAQgAAEIQKCaACG9+vjZPAQgAAEIQAACEIBAIgFCeuKpMBMEIAABCEAAAhCAQDUBQnr18bN5CEAAAhCAAAQgAIFEAt+H9P/4zZcv//brXyfOyEwQgAAEIAABCEAAAhCoIXBk8u9D+j/+0z+/HEH9q2/+xk8Y4AAO4AAO4AAO4AAO4MAHOfDv//Wbl/8DmmKyqT24QiYAAAAASUVORK5CYII=;" vertex="1" parent="1">
          <mxGeometry x="112" y="60" width="602.1" height="632" as="geometry" />
        </mxCell>
        <mxCell id="6VcvKHU9KsKmzjZGUHk8-3" value="" style="rounded=0;whiteSpace=wrap;html=1;fillColor=none;strokeColor=#FF0000;strokeWidth=3;" vertex="1" parent="1">
          <mxGeometry x="600" y="140" width="95.9" height="40" as="geometry" />
        </mxCell>
      </root>
    </mxGraphModel>
  </diagram>
</mxfile>
